<?xml version="1.0" encoding="utf-8"?>
<!-- Generator: Adobe Illustrator 25.2.1, SVG Export Plug-In . SVG Version: 6.00 Build 0)  -->
<svg version="1.1" id="Layer_1" xmlns="http://www.w3.org/2000/svg" xmlns:xlink="http://www.w3.org/1999/xlink" x="0px" y="0px"
	 viewBox="0 0 263 40" style="enable-background:new 0 0 263 40;" xml:space="preserve">
<style type="text/css">
	.st0{fill:#231F20;}
	.st1{fill:#FFFFFF;}
	.st2{display:none;}
	.st3{display:inline;fill:#00ADEE;}
	.st4{display:inline;fill:#FFFFFF;}
	.st5{display:inline;fill:#231F20;}
	.st6{display:inline;}
	.st7{fill:#F47920;}
	.st8{fill:#37B34A;}
	.st9{fill:#DD1E25;}
	.st10{display:inline;fill:#662584;}
</style>
<g>
	<g>
		<path class="st0" d="M257.5,7.7c-2.2-0.2-3.7-2.1-3.5-4.3c0.2-2.1,2.2-3.7,4.4-3.4c2.2,0.2,3.7,2.1,3.5,4.3
			C261.6,6.4,259.7,8,257.5,7.7z"/>
		<path class="st1" d="M258.7,2.1c0.3,0.2,0.6,0.5,1,1.1l-0.8-2.7c0,0-1.6-0.5-3.1,0.6c0,0,1.1-0.4,2.4-0.1c0,0-1.3,0-1.9,0.5
			c0,0,0.8-0.4,2,0c0,0-0.8,0-1.4,0.2C256.9,1.7,258.1,1.7,258.7,2.1z"/>
		<path class="st1" d="M256.4,2.6c0.3-0.3,0.6-0.5,1.4-0.6L255,2c0,0-1,1.4-0.4,3.1c0,0-0.1-1.2,0.6-2.3c0,0-0.4,1.2-0.1,2
			c0,0-0.2-0.9,0.6-1.9c0,0-0.2,0.8-0.2,1.3C255.5,4.2,255.8,3.1,256.4,2.6z"/>
		<path class="st1" d="M256.2,4.9c-0.2-0.4-0.3-0.7-0.1-1.5l-0.9,2.6c0,0,1,1.3,2.9,1.3c0,0-1.2-0.3-2.1-1.3c0,0,1.1,0.7,1.9,0.7
			c0,0-0.9-0.1-1.6-1.1c0,0,0.7,0.5,1.2,0.6C257.5,6.2,256.5,5.6,256.2,4.9z"/>
		<path class="st1" d="M258.4,5.8c-0.4,0-0.8,0-1.5-0.4l2.2,1.7c0,0,1.6-0.5,2.2-2.3c0,0-0.6,1-1.9,1.5c0,0,1-0.8,1.3-1.5
			c0,0-0.4,0.8-1.6,1.1c0,0,0.7-0.5,1-1C260.1,5.1,259.1,5.8,258.4,5.8z"/>
		<path class="st1" d="M260,4c-0.1,0.4-0.2,0.7-0.8,1.3l2.3-1.6c0,0,0-1.7-1.6-2.7c0,0,0.8,0.9,0.9,2.2c0,0-0.4-1.2-1.1-1.6
			c0,0,0.7,0.6,0.7,1.8c0,0-0.3-0.8-0.6-1.2C259.7,2.3,260.1,3.4,260,4z"/>
	</g>
	<g>
		<path class="st0" d="M101.2,0v12.9h0.1c0.3-0.8,0.7-1.5,1.2-2.1c0.5-0.6,1.2-1.1,1.8-1.5c0.7-0.4,1.5-0.7,2.3-0.9
			c0.8-0.2,1.6-0.3,2.4-0.3c1.7,0,3.2,0.3,4.5,1c1.3,0.6,2.3,1.5,3.2,2.6c0.8,1.1,1.5,2.4,1.9,3.8c0.4,1.4,0.6,3,0.6,4.5
			c0,1.6-0.2,3.1-0.6,4.5c-0.4,1.4-1,2.7-1.9,3.8c-0.8,1.1-1.9,1.9-3.2,2.6c-1.3,0.6-2.7,0.9-4.5,0.9c-1.8,0-3.5-0.4-4.9-1.3
			c-1.4-0.8-2.5-2-3.1-3.6H101v4.3h-2.5V0H101.2z M116,16.4c-0.3-1.1-0.7-2.2-1.3-3.1c-0.6-0.9-1.4-1.6-2.3-2.2
			c-0.9-0.6-2-0.8-3.4-0.8c-1.5,0-2.7,0.3-3.7,0.8s-1.8,1.3-2.4,2.2c-0.6,0.9-1.1,1.9-1.3,3.1c-0.3,1.1-0.4,2.3-0.4,3.5
			c0,1.2,0.1,2.3,0.4,3.5c0.3,1.1,0.7,2.2,1.3,3.1c0.6,0.9,1.4,1.6,2.4,2.2s2.2,0.8,3.7,0.8c1.3,0,2.4-0.3,3.4-0.8
			c0.9-0.6,1.7-1.3,2.3-2.2c0.6-0.9,1-1.9,1.3-3.1c0.3-1.1,0.4-2.3,0.4-3.5C116.4,18.7,116.3,17.5,116,16.4z"/>
		<path class="st0" d="M124.9,8.6v5.3h0.1c0.7-1.8,1.8-3.2,3.2-4.2c1.5-1,3.2-1.4,5.2-1.3v2.7c-1.2-0.1-2.4,0.1-3.4,0.5
			c-1,0.4-1.9,1-2.6,1.7c-0.7,0.7-1.3,1.6-1.7,2.6c-0.4,1-0.6,2.1-0.6,3.3v12h-2.7V8.6H124.9z"/>
		<path class="st0" d="M135.5,12.1c0.5-1,1.1-1.7,1.9-2.4c0.8-0.6,1.7-1.1,2.8-1.3c1.1-0.3,2.3-0.4,3.6-0.4c1,0,2,0.1,3,0.3
			c1,0.2,1.9,0.5,2.7,1.1c0.8,0.5,1.4,1.3,1.9,2.2c0.5,0.9,0.7,2.2,0.7,3.7v11.9c0,1.1,0.5,1.7,1.6,1.7c0.3,0,0.6-0.1,0.9-0.2v2.3
			c-0.3,0.1-0.6,0.1-0.8,0.1c-0.2,0-0.6,0-0.9,0c-0.7,0-1.3-0.1-1.7-0.3c-0.4-0.2-0.7-0.5-1-0.8c-0.2-0.3-0.4-0.8-0.5-1.2
			c-0.1-0.5-0.1-1-0.1-1.6h-0.1c-0.5,0.7-1,1.4-1.5,1.9c-0.5,0.6-1.1,1-1.7,1.4c-0.6,0.4-1.3,0.7-2.1,0.9c-0.8,0.2-1.7,0.3-2.9,0.3
			c-1,0-2-0.1-2.9-0.4c-0.9-0.2-1.7-0.6-2.4-1.2c-0.7-0.5-1.2-1.2-1.6-2c-0.4-0.8-0.6-1.8-0.6-2.9c0-1.6,0.3-2.8,1-3.7
			c0.7-0.9,1.6-1.6,2.8-2c1.1-0.5,2.4-0.8,3.9-1c1.4-0.2,2.9-0.4,4.4-0.5c0.6-0.1,1.1-0.1,1.5-0.2c0.4-0.1,0.8-0.2,1.1-0.5
			c0.3-0.2,0.5-0.5,0.7-0.9c0.2-0.4,0.2-0.9,0.2-1.5c0-0.9-0.2-1.7-0.5-2.3c-0.3-0.6-0.7-1.1-1.3-1.4c-0.5-0.3-1.2-0.6-1.9-0.7
			c-0.7-0.1-1.5-0.2-2.3-0.2c-1.7,0-3.2,0.4-4.3,1.2c-1.1,0.8-1.7,2.2-1.7,4h-2.7C134.8,14.2,135.1,13.1,135.5,12.1z M149.2,18.8
			c-0.2,0.3-0.5,0.6-1,0.7c-0.5,0.1-0.9,0.2-1.3,0.3c-1.2,0.2-2.4,0.4-3.6,0.5c-1.2,0.2-2.4,0.4-3.4,0.7c-1,0.3-1.8,0.8-2.5,1.4
			c-0.7,0.6-1,1.4-1,2.5c0,0.7,0.1,1.3,0.4,1.8c0.3,0.5,0.6,1,1.1,1.4c0.5,0.4,1,0.7,1.6,0.9c0.6,0.2,1.2,0.3,1.9,0.3
			c1,0,2-0.2,3-0.5c1-0.3,1.8-0.8,2.5-1.4c0.7-0.6,1.3-1.3,1.7-2.2c0.4-0.9,0.6-1.9,0.6-3L149.2,18.8L149.2,18.8z"/>
		<path class="st0" d="M159.2,8.6v3.9h0.1c0.5-1.4,1.5-2.5,2.8-3.3c1.3-0.8,2.8-1.2,4.4-1.2c1.6,0,2.9,0.2,3.9,0.6
			c1.1,0.4,1.9,1,2.5,1.7c0.6,0.7,1.1,1.6,1.3,2.7c0.3,1.1,0.4,2.3,0.4,3.6v14.5h-2.7v-14c0-1-0.1-1.8-0.3-2.7
			c-0.2-0.8-0.5-1.5-0.9-2.2c-0.4-0.6-1-1.1-1.8-1.4c-0.7-0.3-1.7-0.5-2.8-0.5c-1.1,0-2.1,0.2-2.9,0.6c-0.9,0.4-1.6,0.9-2.2,1.6
			c-0.6,0.7-1.1,1.5-1.4,2.4c-0.3,0.9-0.5,2-0.5,3.1v13.1h-2.7V8.6H159.2z"/>
		<path class="st0" d="M196,31.1v-4.3h-0.1c-0.3,0.7-0.7,1.4-1.3,2c-0.6,0.6-1.2,1.1-1.9,1.5c-0.7,0.4-1.5,0.7-2.3,1
			c-0.8,0.2-1.6,0.3-2.5,0.3c-1.7,0-3.2-0.3-4.5-0.9c-1.3-0.6-2.3-1.5-3.2-2.6c-0.8-1.1-1.5-2.4-1.9-3.8c-0.4-1.4-0.6-3-0.6-4.5
			c0-1.6,0.2-3.1,0.6-4.5c0.4-1.4,1-2.7,1.9-3.8c0.8-1.1,1.9-2,3.2-2.6c1.3-0.6,2.7-1,4.5-1c0.8,0,1.7,0.1,2.5,0.3
			c0.8,0.2,1.5,0.5,2.2,0.9c0.7,0.4,1.3,0.9,1.9,1.5c0.5,0.6,0.9,1.3,1.2,2.1h0.1V0h2.7v31.1H196z M181,23.3
			c0.3,1.1,0.7,2.2,1.3,3.1c0.6,0.9,1.4,1.6,2.3,2.2c0.9,0.6,2,0.8,3.4,0.8c1.5,0,2.7-0.3,3.7-0.8c1-0.6,1.8-1.3,2.4-2.2
			c0.6-0.9,1.1-1.9,1.3-3.1c0.3-1.1,0.4-2.3,0.4-3.5c0-1.2-0.1-2.3-0.4-3.5c-0.3-1.1-0.7-2.2-1.3-3.1c-0.6-0.9-1.4-1.6-2.4-2.2
			c-1-0.6-2.2-0.8-3.7-0.8c-1.3,0-2.4,0.3-3.4,0.8c-0.9,0.6-1.7,1.3-2.3,2.2c-0.6,0.9-1,1.9-1.3,3.1c-0.3,1.1-0.4,2.3-0.4,3.5
			C180.5,21,180.7,22.2,181,23.3z"/>
		<path class="st0" d="M205.4,0v4.4h-2.7V0H205.4z M205.4,8.6v22.5h-2.7V8.6H205.4z"/>
		<path class="st0" d="M212.3,8.6v3.9h0.1c0.5-1.4,1.5-2.5,2.8-3.3c1.3-0.8,2.8-1.2,4.4-1.2c1.6,0,2.9,0.2,3.9,0.6
			c1.1,0.4,1.9,1,2.5,1.7c0.6,0.7,1.1,1.6,1.3,2.7c0.3,1.1,0.4,2.3,0.4,3.6v14.5h-2.7v-14c0-1-0.1-1.8-0.3-2.7
			c-0.2-0.8-0.5-1.5-0.9-2.2c-0.4-0.6-1-1.1-1.8-1.4c-0.7-0.3-1.7-0.5-2.8-0.5c-1.1,0-2.1,0.2-2.9,0.6c-0.9,0.4-1.6,0.9-2.2,1.6
			c-0.6,0.7-1.1,1.5-1.4,2.4c-0.3,0.9-0.5,2-0.5,3.1v13.1h-2.7V8.6H212.3z"/>
		<path class="st0" d="M250.3,33.7c-0.4,1.3-0.9,2.5-1.7,3.4c-0.8,0.9-1.8,1.6-3.1,2.1c-1.3,0.5-2.8,0.7-4.6,0.7
			c-1.1,0-2.2-0.1-3.3-0.4c-1.1-0.3-2-0.7-2.9-1.2c-0.9-0.6-1.6-1.3-2.1-2.1c-0.6-0.9-0.9-1.9-1-3.1h2.7c0.1,0.8,0.4,1.5,0.8,2.1
			c0.4,0.6,0.9,1,1.5,1.4c0.6,0.3,1.3,0.6,2,0.8c0.7,0.2,1.5,0.2,2.2,0.2c2.6,0,4.4-0.7,5.5-2.2c1.1-1.5,1.7-3.5,1.7-6.3v-3H248
			c-0.6,1.4-1.6,2.5-2.8,3.4c-1.2,0.8-2.7,1.3-4.3,1.3c-1.8,0-3.3-0.3-4.6-0.9c-1.3-0.6-2.3-1.4-3.2-2.5c-0.8-1-1.4-2.3-1.8-3.7
			c-0.4-1.4-0.6-2.9-0.6-4.5c0-1.5,0.2-3,0.7-4.4c0.4-1.4,1.1-2.6,2-3.6c0.9-1,1.9-1.8,3.2-2.4c1.3-0.6,2.7-0.9,4.3-0.9
			c0.8,0,1.6,0.1,2.4,0.3c0.7,0.2,1.4,0.6,2,1c0.6,0.4,1.2,0.9,1.6,1.5c0.5,0.6,0.8,1.1,1.1,1.7h0.1V8.6h2.7v20.6
			C250.9,30.9,250.7,32.4,250.3,33.7z M244,27.7c0.9-0.5,1.7-1.2,2.3-2c0.6-0.8,1.1-1.8,1.4-2.9c0.3-1.1,0.5-2.2,0.5-3.3
			c0-1.1-0.1-2.2-0.4-3.3c-0.3-1.1-0.7-2.1-1.3-3c-0.6-0.9-1.3-1.6-2.2-2.2c-0.9-0.6-2-0.8-3.3-0.8c-1.3,0-2.4,0.3-3.4,0.8
			c-0.9,0.5-1.7,1.2-2.3,2.1c-0.6,0.9-1.1,1.9-1.3,3c-0.3,1.1-0.4,2.3-0.4,3.4c0,1.1,0.1,2.2,0.4,3.3c0.3,1.1,0.7,2,1.3,2.9
			c0.6,0.8,1.4,1.5,2.3,2c0.9,0.5,2,0.8,3.3,0.8C242.1,28.5,243.1,28.3,244,27.7z"/>
	</g>
	<g>
		<path class="st0" d="M20.8,8.8c-0.4-0.6-0.9-1.2-1.5-1.7c-0.6-0.5-1.3-0.9-2-1.1c-0.8-0.3-1.5-0.4-2.4-0.4c-1.5,0-2.8,0.3-3.8,0.9
			c-1,0.6-1.9,1.4-2.6,2.3c-0.7,1-1.1,2.1-1.4,3.3c-0.3,1.2-0.4,2.5-0.4,3.9c0,1.3,0.1,2.5,0.4,3.7C7.4,21,7.9,22,8.5,23
			c0.7,1,1.5,1.7,2.6,2.3c1,0.6,2.3,0.9,3.8,0.9c2,0,3.6-0.6,4.8-1.9c1.1-1.2,1.8-2.9,2.1-4.9h6.5c-0.2,1.9-0.6,3.6-1.3,5.1
			c-0.7,1.5-1.6,2.8-2.8,3.9c-1.2,1.1-2.5,1.9-4.1,2.5c-1.6,0.6-3.3,0.9-5.1,0.9c-2.3,0-4.4-0.4-6.3-1.2c-1.9-0.8-3.4-1.9-4.7-3.3
			c-1.3-1.4-2.3-3.1-2.9-5c-0.7-1.9-1-4-1-6.2c0-2.3,0.3-4.4,1-6.3C1.7,7.8,2.7,6.1,4,4.6s2.8-2.6,4.7-3.4C10.5,0.4,12.6,0,14.9,0
			c1.7,0,3.3,0.2,4.7,0.7c1.5,0.5,2.8,1.2,4,2.1c1.2,0.9,2.1,2.1,2.9,3.4c0.8,1.4,1.2,2.9,1.4,4.7h-6.5C21.4,10.2,21.2,9.5,20.8,8.8
			z"/>
		<path class="st0" d="M31.5,9.7c0.7-1.9,1.7-3.6,2.9-5.1c1.3-1.4,2.8-2.6,4.7-3.4C40.9,0.4,43,0,45.4,0c2.4,0,4.4,0.4,6.3,1.2
			c1.8,0.8,3.4,2,4.7,3.4c1.3,1.4,2.3,3.1,2.9,5.1c0.7,1.9,1,4,1,6.3c0,2.2-0.3,4.3-1,6.2c-0.7,1.9-1.7,3.6-2.9,5
			c-1.3,1.4-2.8,2.5-4.7,3.3c-1.8,0.8-3.9,1.2-6.3,1.2c-2.3,0-4.4-0.4-6.3-1.2c-1.9-0.8-3.4-1.9-4.7-3.3c-1.3-1.4-2.3-3.1-2.9-5
			c-0.7-1.9-1-4-1-6.2C30.4,13.8,30.8,11.7,31.5,9.7z M37.6,19.7C37.9,21,38.3,22,39,23c0.7,1,1.5,1.7,2.6,2.3
			c1,0.6,2.3,0.9,3.8,0.9c1.5,0,2.8-0.3,3.8-0.9c1-0.6,1.9-1.4,2.6-2.3c0.7-1,1.1-2,1.4-3.3c0.3-1.2,0.4-2.4,0.4-3.7
			c0-1.3-0.1-2.6-0.4-3.9c-0.3-1.2-0.8-2.4-1.4-3.3c-0.7-1-1.5-1.8-2.6-2.3c-1-0.6-2.3-0.9-3.8-0.9c-1.5,0-2.8,0.3-3.8,0.9
			c-1,0.6-1.9,1.4-2.6,2.3c-0.7,1-1.1,2.1-1.4,3.3c-0.3,1.2-0.4,2.5-0.4,3.9C37.1,17.3,37.3,18.5,37.6,19.7z"/>
		<path class="st0" d="M81.8,30.8c-1.4,0.6-2.9,0.9-4.4,0.9c-2.3,0-4.4-0.4-6.3-1.2c-1.9-0.8-3.4-1.9-4.7-3.3
			c-1.3-1.4-2.3-3.1-2.9-5c-0.7-1.9-1-4-1-6.2c0-2.3,0.3-4.4,1-6.3c0.7-1.9,1.7-3.6,2.9-5.1c1.3-1.4,2.8-2.6,4.7-3.4
			C73,0.4,75,0,77.4,0c1.6,0,3.1,0.2,4.5,0.7c1.5,0.5,2.8,1.2,4,2.1c1.2,0.9,2.1,2,2.9,3.4c0.8,1.3,1.2,2.9,1.4,4.6h-6.4
			c-0.4-1.7-1.2-3-2.3-3.8C80.4,6,79,5.6,77.4,5.6c-1.5,0-2.8,0.3-3.8,0.9c-1,0.6-1.9,1.4-2.6,2.3c-0.7,1-1.1,2.1-1.4,3.3
			c-0.3,1.2-0.4,2.5-0.4,3.9c0,1.3,0.1,2.5,0.4,3.7C69.9,21,70.3,22,71,23c0.7,1,1.5,1.7,2.6,2.3c1,0.6,2.3,0.9,3.8,0.9
			c2.2,0,3.9-0.6,5.1-1.7c1.2-1.1,1.9-2.7,2.1-4.9h-6.7v-5h12.8v16.4h-4.3l-0.7-3.4C84.5,29.2,83.2,30.2,81.8,30.8z"/>
	</g>
</g>
<g class="st2">
	<path class="st3" d="M237.1-45.9c-2.2-0.2-3.7-2.1-3.5-4.3c0.2-2.1,2.2-3.7,4.4-3.4c2.2,0.2,3.7,2.1,3.5,4.3
		C241.2-47.2,239.2-45.7,237.1-45.9z"/>
	<path class="st4" d="M238.3-51.6c0.3,0.2,0.6,0.5,1,1.1l-0.8-2.7c0,0-1.6-0.5-3.1,0.6c0,0,1.1-0.4,2.4-0.1c0,0-1.3,0-1.9,0.5
		c0,0,0.8-0.4,2,0c0,0-0.8,0-1.4,0.2C236.5-51.9,237.7-52,238.3-51.6z"/>
	<path class="st4" d="M236-51c0.3-0.3,0.6-0.5,1.4-0.6l-2.8-0.1c0,0-1,1.4-0.4,3.1c0,0-0.1-1.2,0.6-2.3c0,0-0.4,1.2-0.1,2
		c0,0-0.2-0.9,0.6-1.9c0,0-0.2,0.8-0.2,1.3C235.1-49.5,235.4-50.6,236-51z"/>
	<path class="st4" d="M235.8-48.7c-0.2-0.4-0.3-0.7-0.1-1.5l-0.9,2.6c0,0,1,1.3,2.9,1.3c0,0-1.2-0.3-2.1-1.3c0,0,1.1,0.7,1.9,0.7
		c0,0-0.9-0.1-1.6-1.1c0,0,0.7,0.5,1.2,0.6C237-47.4,236-48.1,235.8-48.7z"/>
	<path class="st4" d="M238-47.8c-0.4,0-0.8,0-1.5-0.4l2.2,1.7c0,0,1.6-0.5,2.2-2.3c0,0-0.6,1-1.9,1.5c0,0,1-0.8,1.3-1.5
		c0,0-0.4,0.8-1.6,1.2c0,0,0.7-0.5,1-1C239.6-48.6,238.7-47.9,238-47.8z"/>
	<path class="st4" d="M239.5-49.6c-0.1,0.4-0.2,0.7-0.8,1.3l2.3-1.6c0,0,0-1.7-1.6-2.7c0,0,0.8,0.9,0.9,2.2c0,0-0.4-1.2-1.1-1.6
		c0,0,0.7,0.6,0.7,1.8c0,0-0.3-0.8-0.6-1.2C239.3-51.4,239.7-50.3,239.5-49.6z"/>
	<path class="st5" d="M134.8-23v-4.3h-0.1c-0.3,0.7-0.7,1.4-1.3,2s-1.2,1.1-1.9,1.5c-0.7,0.4-1.5,0.7-2.3,1
		c-0.8,0.2-1.6,0.3-2.5,0.3c-1.7,0-3.2-0.3-4.5-0.9c-1.3-0.6-2.3-1.5-3.2-2.6c-0.8-1.1-1.5-2.4-1.9-3.8c-0.4-1.4-0.6-3-0.6-4.5
		c0-1.6,0.2-3.1,0.6-4.5c0.4-1.4,1-2.7,1.9-3.8c0.8-1.1,1.9-2,3.2-2.6c1.3-0.6,2.7-1,4.5-1c0.8,0,1.7,0.1,2.5,0.3
		c0.8,0.2,1.5,0.5,2.2,0.9c0.7,0.4,1.3,0.9,1.8,1.5s1,1.3,1.2,2.1h0.1V-54h2.7V-23H134.8z M119.7-30.7c0.3,1.1,0.7,2.2,1.3,3.1
		c0.6,0.9,1.4,1.6,2.3,2.2c0.9,0.6,2,0.8,3.4,0.8c1.5,0,2.7-0.3,3.7-0.8c1-0.6,1.8-1.3,2.4-2.2c0.6-0.9,1.1-1.9,1.3-3.1
		c0.3-1.1,0.4-2.3,0.4-3.5c0-1.2-0.1-2.3-0.4-3.5c-0.3-1.1-0.7-2.2-1.3-3.1c-0.6-0.9-1.4-1.6-2.4-2.2c-1-0.6-2.2-0.8-3.7-0.8
		c-1.3,0-2.4,0.3-3.4,0.8c-0.9,0.6-1.7,1.3-2.3,2.2c-0.6,0.9-1,1.9-1.3,3.1c-0.3,1.1-0.4,2.3-0.4,3.5
		C119.3-33,119.5-31.9,119.7-30.7z"/>
	<path class="st5" d="M143.5-30.4c0.3,1.1,0.7,2,1.3,2.9c0.6,0.8,1.4,1.5,2.3,2.1c0.9,0.6,2,0.8,3.4,0.8c2,0,3.6-0.5,4.7-1.6
		c1.1-1,1.9-2.4,2.4-4.2h2.7c-0.6,2.6-1.6,4.5-3.2,5.9c-1.6,1.4-3.8,2.1-6.6,2.1c-1.8,0-3.3-0.3-4.6-0.9c-1.3-0.6-2.3-1.5-3.2-2.6
		c-0.8-1.1-1.4-2.4-1.8-3.8c-0.4-1.4-0.6-3-0.6-4.5c0-1.5,0.2-2.9,0.6-4.4c0.4-1.4,1-2.7,1.8-3.8c0.8-1.1,1.9-2,3.2-2.7
		c1.3-0.7,2.8-1,4.6-1c1.8,0,3.3,0.4,4.6,1.1c1.3,0.7,2.3,1.7,3.1,2.9c0.8,1.2,1.4,2.5,1.7,4c0.3,1.5,0.5,3.1,0.4,4.6H143
		C143-32.5,143.2-31.4,143.5-30.4z M157-38.8c-0.3-1-0.8-1.8-1.4-2.5c-0.6-0.7-1.3-1.3-2.2-1.8c-0.9-0.4-1.9-0.7-3-0.7
		c-1.1,0-2.1,0.2-3,0.7c-0.9,0.5-1.6,1-2.2,1.8c-0.6,0.7-1.1,1.6-1.5,2.6c-0.4,1-0.6,2-0.7,3h14.5C157.5-36.8,157.4-37.8,157-38.8z"
		/>
	<path class="st5" d="M175.9-41.1c-0.3-0.6-0.7-1.1-1.3-1.5c-0.5-0.4-1.2-0.7-1.8-0.9c-0.7-0.2-1.4-0.3-2.2-0.3
		c-0.6,0-1.2,0.1-1.8,0.2c-0.6,0.1-1.2,0.3-1.7,0.7c-0.5,0.3-0.9,0.7-1.3,1.2c-0.3,0.5-0.5,1.1-0.5,1.8c0,0.6,0.2,1.1,0.5,1.5
		c0.3,0.4,0.7,0.8,1.2,1.1c0.5,0.3,1,0.5,1.5,0.7c0.6,0.2,1.1,0.3,1.5,0.5l3.7,0.8c0.8,0.1,1.6,0.3,2.3,0.6c0.8,0.3,1.5,0.7,2,1.2
		c0.6,0.5,1.1,1.1,1.5,1.8c0.4,0.7,0.6,1.6,0.6,2.6c0,1.2-0.3,2.3-0.8,3.1c-0.6,0.9-1.3,1.6-2.1,2.1c-0.9,0.5-1.8,0.9-2.9,1.2
		c-1.1,0.2-2.1,0.3-3.2,0.3c-2.6,0-4.8-0.6-6.4-1.9c-1.6-1.2-2.6-3.2-2.8-6h2.7c0.1,1.9,0.8,3.3,2,4.2c1.2,0.9,2.8,1.4,4.6,1.4
		c0.7,0,1.4-0.1,2.1-0.2c0.7-0.1,1.4-0.4,2-0.7c0.6-0.3,1.1-0.8,1.5-1.3c0.4-0.5,0.6-1.2,0.6-2c0-0.7-0.1-1.2-0.4-1.7
		c-0.3-0.4-0.6-0.8-1.1-1.1c-0.5-0.3-1-0.6-1.6-0.8c-0.6-0.2-1.2-0.4-1.8-0.5l-3.5-0.8c-0.9-0.2-1.7-0.5-2.5-0.8
		c-0.8-0.3-1.4-0.7-2-1.1c-0.6-0.4-1-1-1.3-1.7c-0.3-0.7-0.5-1.5-0.5-2.4c0-1.1,0.3-2.1,0.8-2.9c0.5-0.8,1.2-1.5,2-2
		c0.8-0.5,1.7-0.9,2.7-1.1c1-0.2,2-0.3,3-0.3c1.1,0,2.2,0.1,3.2,0.4c1,0.3,1.8,0.7,2.6,1.3c0.7,0.6,1.3,1.4,1.8,2.3
		c0.4,0.9,0.7,2,0.7,3.2h-2.7C176.3-39.7,176.2-40.4,175.9-41.1z"/>
	<path class="st5" d="M185.6-54v4.4h-2.7V-54H185.6z M185.6-45.4V-23h-2.7v-22.5H185.6z"/>
	<path class="st5" d="M208.2-20.3c-0.4,1.3-0.9,2.5-1.7,3.4c-0.8,0.9-1.8,1.6-3.1,2.1c-1.3,0.5-2.8,0.7-4.6,0.7
		c-1.1,0-2.2-0.1-3.3-0.4c-1.1-0.3-2-0.7-2.9-1.2c-0.9-0.6-1.6-1.3-2.1-2.1c-0.6-0.9-0.9-1.9-1-3.1h2.7c0.1,0.8,0.4,1.5,0.8,2.1
		c0.4,0.6,0.9,1,1.5,1.4c0.6,0.3,1.3,0.6,2,0.8c0.7,0.2,1.5,0.2,2.2,0.2c2.6,0,4.4-0.7,5.5-2.2c1.1-1.5,1.7-3.5,1.7-6.3v-3h-0.1
		c-0.6,1.4-1.6,2.5-2.8,3.4c-1.2,0.8-2.7,1.3-4.3,1.3c-1.8,0-3.3-0.3-4.6-0.9c-1.3-0.6-2.3-1.4-3.2-2.5c-0.8-1-1.4-2.3-1.8-3.7
		c-0.4-1.4-0.6-2.9-0.6-4.5c0-1.5,0.2-3,0.7-4.4c0.4-1.4,1.1-2.6,2-3.6c0.9-1,1.9-1.8,3.2-2.4c1.3-0.6,2.7-0.9,4.3-0.9
		c0.8,0,1.6,0.1,2.4,0.3c0.7,0.2,1.4,0.6,2,1c0.6,0.4,1.2,0.9,1.6,1.5c0.5,0.6,0.8,1.1,1.1,1.7h0.1v-3.9h2.7v20.6
		C208.7-23.1,208.5-21.6,208.2-20.3z M201.9-26.3c0.9-0.5,1.7-1.2,2.3-2c0.6-0.8,1.1-1.8,1.4-2.9c0.3-1.1,0.5-2.2,0.5-3.3
		c0-1.1-0.1-2.2-0.4-3.3c-0.3-1.1-0.7-2.1-1.3-3c-0.6-0.9-1.3-1.6-2.2-2.2c-0.9-0.6-2-0.8-3.3-0.8c-1.3,0-2.4,0.3-3.4,0.8
		c-0.9,0.5-1.7,1.2-2.3,2.1c-0.6,0.9-1.1,1.9-1.3,3c-0.3,1.1-0.4,2.3-0.4,3.4c0,1.1,0.1,2.2,0.4,3.3c0.3,1.1,0.7,2,1.3,2.9
		c0.6,0.8,1.4,1.5,2.3,2c0.9,0.5,2,0.8,3.3,0.8C199.9-25.5,201-25.8,201.9-26.3z"/>
	<path class="st5" d="M215.6-45.4v3.9h0.1c0.5-1.4,1.5-2.5,2.8-3.3c1.3-0.8,2.8-1.2,4.4-1.2c1.6,0,2.9,0.2,3.9,0.6
		c1.1,0.4,1.9,1,2.5,1.7c0.6,0.7,1.1,1.6,1.3,2.7c0.3,1.1,0.4,2.3,0.4,3.6V-23h-2.7v-14c0-1-0.1-1.9-0.3-2.7
		c-0.2-0.8-0.5-1.5-0.9-2.2c-0.4-0.6-1-1.1-1.8-1.4c-0.7-0.3-1.7-0.5-2.8-0.5c-1.1,0-2.1,0.2-2.9,0.6c-0.9,0.4-1.6,0.9-2.2,1.6
		c-0.6,0.7-1.1,1.5-1.4,2.4c-0.3,0.9-0.5,2-0.5,3.1V-23h-2.7v-22.5H215.6z"/>
	<path class="st5" d="M42.3-45.2c-0.4-0.6-0.9-1.2-1.5-1.7c-0.6-0.5-1.3-0.9-2-1.1c-0.8-0.3-1.5-0.4-2.4-0.4c-1.5,0-2.8,0.3-3.8,0.9
		c-1,0.6-1.9,1.4-2.6,2.3c-0.7,1-1.1,2.1-1.4,3.3c-0.3,1.2-0.4,2.5-0.4,3.9c0,1.3,0.1,2.5,0.4,3.7c0.3,1.2,0.8,2.3,1.4,3.3
		c0.7,1,1.5,1.7,2.6,2.3c1,0.6,2.3,0.9,3.8,0.9c2,0,3.6-0.6,4.8-1.9c1.1-1.2,1.8-2.9,2.1-4.9h6.5c-0.2,1.9-0.6,3.6-1.3,5.1
		c-0.7,1.5-1.6,2.8-2.8,3.9c-1.2,1.1-2.5,1.9-4.1,2.5c-1.6,0.6-3.3,0.9-5.1,0.9c-2.3,0-4.4-0.4-6.3-1.2c-1.9-0.8-3.4-1.9-4.7-3.3
		c-1.3-1.4-2.3-3.1-2.9-5c-0.7-1.9-1-4-1-6.2c0-2.3,0.3-4.4,1-6.3c0.7-1.9,1.7-3.6,2.9-5.1c1.3-1.4,2.8-2.6,4.7-3.4
		c1.9-0.8,3.9-1.2,6.3-1.2c1.7,0,3.3,0.2,4.7,0.7c1.5,0.5,2.8,1.2,4,2.1c1.2,0.9,2.1,2.1,2.9,3.4c0.8,1.4,1.2,2.9,1.4,4.7h-6.5
		C43-43.9,42.7-44.6,42.3-45.2z"/>
	<path class="st5" d="M53-44.3c0.7-1.9,1.7-3.6,2.9-5.1c1.3-1.4,2.8-2.6,4.7-3.4c1.9-0.8,3.9-1.2,6.3-1.2c2.4,0,4.4,0.4,6.3,1.2
		c1.8,0.8,3.4,2,4.7,3.4c1.3,1.4,2.3,3.1,2.9,5.1c0.7,1.9,1,4,1,6.3c0,2.2-0.3,4.3-1,6.2c-0.7,1.9-1.7,3.6-2.9,5
		c-1.3,1.4-2.8,2.5-4.7,3.3c-1.8,0.8-3.9,1.2-6.3,1.2c-2.3,0-4.4-0.4-6.3-1.2c-1.9-0.8-3.4-1.9-4.7-3.3c-1.3-1.4-2.3-3.1-2.9-5
		c-0.7-1.9-1-4-1-6.2C52-40.3,52.3-42.4,53-44.3z M59.1-34.3c0.3,1.2,0.8,2.3,1.4,3.3c0.7,1,1.5,1.7,2.6,2.3c1,0.6,2.3,0.9,3.8,0.9
		c1.5,0,2.8-0.3,3.8-0.9c1-0.6,1.9-1.4,2.6-2.3c0.7-1,1.1-2,1.4-3.3c0.3-1.2,0.4-2.4,0.4-3.7c0-1.3-0.1-2.6-0.4-3.9
		c-0.3-1.2-0.8-2.4-1.4-3.3c-0.7-1-1.5-1.8-2.6-2.3c-1-0.6-2.3-0.9-3.8-0.9c-1.5,0-2.8,0.3-3.8,0.9c-1,0.6-1.9,1.4-2.6,2.3
		c-0.7,1-1.1,2.1-1.4,3.3c-0.3,1.2-0.4,2.5-0.4,3.9C58.7-36.7,58.8-35.5,59.1-34.3z"/>
	<path class="st5" d="M103.3-23.2c-1.4,0.6-2.9,0.9-4.4,0.9c-2.3,0-4.4-0.4-6.3-1.2c-1.9-0.8-3.4-1.9-4.7-3.3
		c-1.3-1.4-2.3-3.1-2.9-5c-0.7-1.9-1-4-1-6.2c0-2.3,0.3-4.4,1-6.3c0.7-1.9,1.7-3.6,2.9-5.1c1.3-1.4,2.8-2.6,4.7-3.4
		c1.9-0.8,3.9-1.2,6.3-1.2c1.6,0,3.1,0.2,4.5,0.7c1.5,0.5,2.8,1.2,4,2.1c1.2,0.9,2.1,2,2.9,3.4c0.8,1.3,1.2,2.9,1.4,4.6h-6.4
		c-0.4-1.7-1.2-3-2.3-3.8c-1.1-0.9-2.5-1.3-4.1-1.3c-1.5,0-2.8,0.3-3.8,0.9c-1,0.6-1.9,1.4-2.6,2.3c-0.7,1-1.1,2.1-1.4,3.3
		c-0.3,1.2-0.4,2.5-0.4,3.9c0,1.3,0.1,2.5,0.4,3.7c0.3,1.2,0.8,2.3,1.4,3.3c0.7,1,1.5,1.7,2.6,2.3c1,0.6,2.3,0.9,3.8,0.9
		c2.2,0,3.9-0.6,5.1-1.7c1.2-1.1,1.9-2.7,2.1-4.9h-6.7v-5h12.8V-23h-4.3l-0.7-3.4C106.1-24.9,104.7-23.8,103.3-23.2z"/>
</g>
<g class="st2">
	<g class="st6">
		<path class="st7" d="M223.4-66.1c-2-0.2-3.5-2-3.2-3.9c0.2-2,2-3.4,4-3.2c2,0.2,3.5,2,3.2,3.9C227.2-67.3,225.4-65.8,223.4-66.1z"
			/>
		<path class="st1" d="M224.5-71.3c0.3,0.2,0.6,0.4,0.9,1.1l-0.7-2.5c0,0-1.5-0.5-2.9,0.5c0,0,1-0.4,2.3-0.1c0,0-1.2,0-1.8,0.5
			c0,0,0.7-0.4,1.8,0c0,0-0.7,0-1.2,0.2C222.8-71.6,223.9-71.6,224.5-71.3z"/>
		<path class="st1" d="M222.4-70.8c0.3-0.2,0.6-0.4,1.3-0.5l-2.6,0c0,0-0.9,1.3-0.3,2.9c0,0-0.1-1.1,0.6-2.1c0,0-0.3,1.1-0.1,1.8
			c0,0-0.2-0.8,0.5-1.7c0,0-0.2,0.7-0.2,1.2C221.6-69.3,221.9-70.4,222.4-70.8z"/>
		<path class="st1" d="M222.2-68.6c-0.1-0.3-0.2-0.7-0.1-1.4l-0.8,2.4c0,0,0.9,1.2,2.7,1.2c0,0-1.1-0.3-1.9-1.2c0,0,1,0.7,1.8,0.6
			c0,0-0.8-0.1-1.5-1c0,0,0.6,0.4,1.1,0.5C223.4-67.5,222.4-68,222.2-68.6z"/>
		<path class="st1" d="M224.2-67.8c-0.4,0-0.7,0-1.4-0.3l2.1,1.6c0,0,1.5-0.5,2-2.1c0,0-0.6,0.9-1.8,1.4c0,0,1-0.7,1.2-1.4
			c0,0-0.4,0.7-1.5,1.1c0,0,0.6-0.4,0.9-0.9C225.7-68.5,224.9-67.8,224.2-67.8z"/>
		<path class="st1" d="M225.6-69.5c-0.1,0.4-0.2,0.7-0.7,1.2l2.1-1.5c0,0,0-1.5-1.4-2.5c0,0,0.7,0.8,0.8,2.1c0,0-0.4-1.1-1-1.5
			c0,0,0.6,0.6,0.6,1.7c0,0-0.2-0.7-0.6-1.1C225.4-71.1,225.8-70.1,225.6-69.5z"/>
	</g>
	<g class="st6">
		<path class="st0" d="M140.2-41.4v-3.9h-0.1c-0.3,0.7-0.7,1.3-1.2,1.9c-0.5,0.6-1.1,1-1.8,1.4c-0.7,0.4-1.4,0.7-2.2,0.9
			c-0.8,0.2-1.5,0.3-2.3,0.3c-1.6,0-3-0.3-4.1-0.9c-1.2-0.6-2.1-1.4-2.9-2.4c-0.8-1-1.4-2.2-1.7-3.5c-0.4-1.3-0.6-2.7-0.6-4.2
			c0-1.5,0.2-2.9,0.6-4.2c0.4-1.3,1-2.5,1.7-3.5c0.8-1,1.7-1.8,2.9-2.4c1.2-0.6,2.5-0.9,4.1-0.9c0.8,0,1.5,0.1,2.3,0.3
			c0.7,0.2,1.4,0.5,2.1,0.9c0.6,0.4,1.2,0.9,1.7,1.4c0.5,0.6,0.9,1.2,1.1,2h0.1v-11.9h2.5v28.7H140.2z M126.3-48.6
			c0.3,1.1,0.7,2,1.2,2.8c0.5,0.8,1.3,1.5,2.1,2c0.9,0.5,1.9,0.8,3.1,0.8c1.3,0,2.5-0.3,3.4-0.8c0.9-0.5,1.7-1.2,2.3-2
			c0.6-0.8,1-1.8,1.2-2.8c0.3-1.1,0.4-2.1,0.4-3.2c0-1.1-0.1-2.1-0.4-3.2c-0.3-1.1-0.7-2-1.2-2.8c-0.6-0.8-1.3-1.5-2.3-2
			c-0.9-0.5-2.1-0.8-3.4-0.8c-1.2,0-2.2,0.3-3.1,0.8c-0.9,0.5-1.6,1.2-2.1,2c-0.5,0.8-1,1.8-1.2,2.8c-0.3,1.1-0.4,2.1-0.4,3.2
			C125.9-50.7,126-49.7,126.3-48.6z"/>
		<path class="st0" d="M148.9-70.2v4.1h-2.5v-4.1H148.9z M148.9-62.2v20.8h-2.5v-20.8H148.9z"/>
		<path class="st0" d="M169.8-39c-0.3,1.2-0.9,2.3-1.6,3.1c-0.7,0.9-1.7,1.5-2.8,2c-1.2,0.5-2.6,0.7-4.3,0.7c-1,0-2.1-0.1-3.1-0.4
			c-1-0.2-1.9-0.6-2.7-1.1c-0.8-0.5-1.4-1.2-2-2c-0.5-0.8-0.8-1.7-0.9-2.8h2.5c0.1,0.8,0.4,1.4,0.8,2c0.4,0.5,0.9,0.9,1.4,1.3
			c0.5,0.3,1.2,0.6,1.8,0.7c0.7,0.1,1.4,0.2,2.1,0.2c2.4,0,4.1-0.7,5.1-2c1-1.3,1.6-3.3,1.6-5.8v-2.8h-0.1c-0.6,1.3-1.5,2.3-2.6,3.1
			c-1.1,0.8-2.5,1.2-4,1.2c-1.7,0-3.1-0.3-4.3-0.8c-1.2-0.5-2.2-1.3-2.9-2.3c-0.8-1-1.3-2.1-1.7-3.4c-0.3-1.3-0.5-2.7-0.5-4.2
			c0-1.4,0.2-2.8,0.6-4c0.4-1.3,1-2.4,1.8-3.3c0.8-1,1.8-1.7,2.9-2.3c1.2-0.5,2.5-0.8,4-0.8c0.8,0,1.5,0.1,2.2,0.3
			c0.7,0.2,1.3,0.5,1.9,0.9c0.6,0.4,1.1,0.8,1.5,1.3c0.4,0.5,0.8,1,1,1.6h0.1v-3.6h2.5v19.1C170.3-41.6,170.2-40.2,169.8-39z
			 M164-44.5c0.8-0.5,1.5-1.1,2.1-1.8c0.6-0.8,1-1.6,1.3-2.6c0.3-1,0.4-2,0.4-3.1c0-1-0.1-2-0.4-3.1c-0.2-1-0.6-1.9-1.2-2.8
			c-0.5-0.8-1.2-1.5-2.1-2c-0.8-0.5-1.9-0.8-3.1-0.8c-1.2,0-2.2,0.2-3.1,0.7c-0.9,0.5-1.6,1.1-2.1,2c-0.6,0.8-1,1.7-1.2,2.8
			c-0.3,1-0.4,2.1-0.4,3.2c0,1,0.1,2.1,0.4,3.1c0.3,1,0.7,1.9,1.2,2.6c0.6,0.8,1.3,1.4,2.1,1.8c0.9,0.5,1.9,0.7,3.1,0.7
			C162.2-43.8,163.2-44,164-44.5z"/>
		<path class="st0" d="M176.7-70.2v4.1h-2.5v-4.1H176.7z M176.7-62.2v20.8h-2.5v-20.8H176.7z"/>
		<path class="st0" d="M189.8-62.2v2.1h-4.2v14c0,0.8,0.1,1.5,0.3,2c0.2,0.5,0.8,0.7,1.7,0.8c0.7,0,1.4,0,2.2-0.1v2.1
			c-0.4,0-0.8,0-1.1,0c-0.4,0-0.8,0-1.1,0c-1.7,0-2.9-0.3-3.5-1c-0.7-0.7-1-1.9-1-3.6v-14.2h-3.6v-2.1h3.6v-6.2h2.5v6.2H189.8z"/>
		<path class="st0" d="M193.6-59c0.4-0.9,1-1.6,1.7-2.2c0.7-0.6,1.6-1,2.6-1.2c1-0.3,2.1-0.4,3.3-0.4c0.9,0,1.8,0.1,2.7,0.3
			c0.9,0.2,1.7,0.5,2.5,1c0.7,0.5,1.3,1.2,1.8,2c0.5,0.9,0.7,2,0.7,3.4v11c0,1,0.5,1.5,1.5,1.5c0.3,0,0.6-0.1,0.8-0.2v2.1
			c-0.3,0.1-0.6,0.1-0.8,0.1c-0.2,0-0.5,0-0.9,0c-0.6,0-1.2-0.1-1.5-0.3c-0.4-0.2-0.7-0.4-0.9-0.7c-0.2-0.3-0.4-0.7-0.4-1.1
			c-0.1-0.4-0.1-0.9-0.1-1.5h-0.1c-0.5,0.7-0.9,1.3-1.4,1.8c-0.5,0.5-1,1-1.6,1.3c-0.6,0.3-1.2,0.6-2,0.8c-0.7,0.2-1.6,0.3-2.6,0.3
			c-1,0-1.9-0.1-2.7-0.3c-0.8-0.2-1.6-0.6-2.2-1.1c-0.6-0.5-1.1-1.1-1.5-1.9c-0.4-0.8-0.5-1.7-0.5-2.7c0-1.4,0.3-2.6,1-3.4
			c0.6-0.8,1.5-1.4,2.6-1.9c1.1-0.4,2.3-0.7,3.6-0.9c1.3-0.2,2.7-0.3,4-0.5c0.5-0.1,1-0.1,1.4-0.2c0.4-0.1,0.7-0.2,1-0.4
			c0.3-0.2,0.5-0.5,0.6-0.8c0.1-0.3,0.2-0.8,0.2-1.4c0-0.9-0.1-1.6-0.4-2.1c-0.3-0.5-0.7-1-1.2-1.3c-0.5-0.3-1.1-0.5-1.7-0.7
			c-0.7-0.1-1.4-0.2-2.1-0.2c-1.6,0-2.9,0.4-3.9,1.1c-1,0.8-1.6,2-1.6,3.7h-2.5C192.9-57,193.2-58.1,193.6-59z M206.3-52.8
			c-0.2,0.3-0.5,0.5-0.9,0.6c-0.5,0.1-0.9,0.2-1.2,0.3c-1.1,0.2-2.2,0.4-3.3,0.5c-1.1,0.1-2.2,0.4-3.1,0.7c-0.9,0.3-1.7,0.7-2.3,1.3
			c-0.6,0.5-0.9,1.3-0.9,2.4c0,0.6,0.1,1.2,0.4,1.7c0.3,0.5,0.6,0.9,1,1.3c0.4,0.4,0.9,0.6,1.5,0.8c0.6,0.2,1.1,0.3,1.7,0.3
			c1,0,1.9-0.1,2.8-0.4c0.9-0.3,1.7-0.7,2.3-1.3c0.7-0.6,1.2-1.2,1.6-2.1c0.4-0.8,0.6-1.7,0.6-2.7L206.3-52.8L206.3-52.8z"/>
		<path class="st0" d="M216.2-70.2v28.7h-2.5v-28.7H216.2z"/>
	</g>
	<g class="st6">
		<path class="st0" d="M54.8-62c-0.4-0.6-0.8-1.1-1.4-1.6c-0.5-0.4-1.2-0.8-1.9-1c-0.7-0.2-1.4-0.4-2.2-0.4c-1.4,0-2.6,0.3-3.5,0.8
			c-1,0.5-1.8,1.3-2.4,2.2c-0.6,0.9-1,1.9-1.3,3.1c-0.3,1.2-0.4,2.3-0.4,3.6c0,1.2,0.1,2.3,0.4,3.4c0.3,1.1,0.7,2.1,1.3,3
			c0.6,0.9,1.4,1.6,2.4,2.1c1,0.5,2.1,0.8,3.5,0.8c1.9,0,3.4-0.6,4.4-1.7c1.1-1.2,1.7-2.7,1.9-4.6h6c-0.2,1.8-0.6,3.3-1.2,4.8
			c-0.7,1.4-1.5,2.6-2.6,3.6c-1.1,1-2.3,1.8-3.8,2.3c-1.4,0.5-3,0.8-4.8,0.8c-2.1,0-4.1-0.4-5.8-1.1c-1.7-0.7-3.2-1.8-4.3-3.1
			c-1.2-1.3-2.1-2.8-2.7-4.6c-0.6-1.8-0.9-3.7-0.9-5.7c0-2.1,0.3-4,0.9-5.8c0.6-1.8,1.5-3.4,2.7-4.7c1.2-1.3,2.6-2.4,4.3-3.1
			c1.7-0.8,3.6-1.1,5.8-1.1c1.5,0,3,0.2,4.4,0.7c1.4,0.4,2.6,1.1,3.7,1.9c1.1,0.9,2,1.9,2.7,3.2c0.7,1.3,1.2,2.7,1.3,4.3h-6
			C55.4-60.8,55.1-61.4,54.8-62z"/>
		<path class="st0" d="M64.6-61.2c0.6-1.8,1.5-3.4,2.7-4.7c1.2-1.3,2.6-2.4,4.3-3.1c1.7-0.8,3.6-1.1,5.8-1.1c2.2,0,4.1,0.4,5.8,1.1
			c1.7,0.8,3.1,1.8,4.3,3.1c1.2,1.3,2.1,2.9,2.7,4.7c0.6,1.8,0.9,3.7,0.9,5.8c0,2-0.3,3.9-0.9,5.7c-0.6,1.8-1.5,3.3-2.7,4.6
			c-1.2,1.3-2.6,2.3-4.3,3.1c-1.7,0.7-3.6,1.1-5.8,1.1c-2.1,0-4.1-0.4-5.8-1.1c-1.7-0.7-3.2-1.8-4.3-3.1c-1.2-1.3-2.1-2.8-2.7-4.6
			c-0.6-1.8-0.9-3.7-0.9-5.7C63.7-57.4,64-59.4,64.6-61.2z M70.3-51.9c0.3,1.1,0.7,2.1,1.3,3c0.6,0.9,1.4,1.6,2.4,2.1
			c1,0.5,2.1,0.8,3.5,0.8c1.4,0,2.6-0.3,3.5-0.8c1-0.5,1.8-1.3,2.4-2.1c0.6-0.9,1-1.9,1.3-3c0.3-1.1,0.4-2.3,0.4-3.4
			c0-1.2-0.1-2.4-0.4-3.6c-0.3-1.2-0.7-2.2-1.3-3.1c-0.6-0.9-1.4-1.6-2.4-2.2c-1-0.5-2.1-0.8-3.5-0.8c-1.4,0-2.6,0.3-3.5,0.8
			c-1,0.5-1.8,1.3-2.4,2.2c-0.6,0.9-1,1.9-1.3,3.1c-0.3,1.2-0.4,2.3-0.4,3.6C69.9-54.2,70-53,70.3-51.9z"/>
		<path class="st0" d="M111.1-41.6c-1.3,0.6-2.7,0.8-4,0.8c-2.1,0-4.1-0.4-5.8-1.1c-1.7-0.7-3.2-1.8-4.3-3.1
			c-1.2-1.3-2.1-2.8-2.7-4.6c-0.6-1.8-0.9-3.7-0.9-5.7c0-2.1,0.3-4,0.9-5.8c0.6-1.8,1.5-3.4,2.7-4.7c1.2-1.3,2.6-2.4,4.3-3.1
			c1.7-0.8,3.6-1.1,5.8-1.1c1.4,0,2.8,0.2,4.2,0.6c1.3,0.4,2.6,1.1,3.7,1.9c1.1,0.8,2,1.9,2.7,3.1c0.7,1.2,1.1,2.6,1.3,4.2H113
			c-0.4-1.6-1.1-2.8-2.1-3.5c-1-0.8-2.3-1.2-3.8-1.2c-1.4,0-2.6,0.3-3.5,0.8c-1,0.5-1.8,1.3-2.4,2.2c-0.6,0.9-1,1.9-1.3,3.1
			c-0.3,1.2-0.4,2.3-0.4,3.6c0,1.2,0.1,2.3,0.4,3.4c0.3,1.1,0.7,2.1,1.3,3c0.6,0.9,1.4,1.6,2.4,2.1c1,0.5,2.1,0.8,3.5,0.8
			c2,0,3.6-0.5,4.7-1.6c1.1-1,1.8-2.5,1.9-4.5h-6.2v-4.6h11.8v15.2h-3.9l-0.6-3.2C113.7-43.2,112.4-42.2,111.1-41.6z"/>
	</g>
</g>
<g class="st2">
	<g class="st6">
		<path class="st7" d="M252.6-57.9c-2.2-0.2-3.7-2.1-3.5-4.3c0.2-2.1,2.2-3.6,4.4-3.4c2.2,0.2,3.7,2.1,3.5,4.3
			C256.7-59.2,254.8-57.7,252.6-57.9"/>
		<path class="st1" d="M253.8-63.5c0.3,0.2,0.6,0.5,1,1.1l-0.8-2.6c0,0-1.6-0.5-3.1,0.6c0,0,1.1-0.4,2.4-0.1c0,0-1.3,0-1.9,0.5
			c0,0,0.8-0.4,2,0c0,0-0.8,0-1.3,0.2C252-63.9,253.2-63.9,253.8-63.5"/>
		<path class="st1" d="M251.5-63c0.3-0.3,0.6-0.5,1.4-0.6l-2.8,0c0,0-1,1.4-0.4,3.1c0,0-0.1-1.2,0.6-2.3c0,0-0.4,1.2-0.1,2
			c0,0-0.2-0.9,0.6-1.9c0,0-0.2,0.8-0.2,1.3C250.7-61.4,251-62.6,251.5-63"/>
		<path class="st1" d="M251.3-60.7c-0.2-0.4-0.3-0.7-0.1-1.5l-0.9,2.6c0,0,1,1.3,2.9,1.3c0,0-1.2-0.3-2.1-1.3c0,0,1.1,0.7,1.9,0.7
			c0,0-0.9-0.1-1.6-1.1c0,0,0.7,0.5,1.2,0.6C252.6-59.4,251.6-60,251.3-60.7"/>
		<path class="st1" d="M253.5-59.8c-0.4,0-0.8,0-1.5-0.4l2.2,1.7c0,0,1.6-0.5,2.2-2.3c0,0-0.6,1-1.9,1.5c0,0,1-0.8,1.3-1.5
			c0,0-0.4,0.8-1.6,1.1c0,0,0.7-0.5,1-0.9C255.2-60.5,254.2-59.8,253.5-59.8"/>
		<path class="st1" d="M255.1-61.6c-0.1,0.4-0.2,0.7-0.8,1.3l2.3-1.6c0,0,0-1.7-1.6-2.7c0,0,0.8,0.9,0.9,2.2c0,0-0.4-1.2-1.1-1.6
			c0,0,0.7,0.6,0.6,1.8c0,0-0.2-0.7-0.6-1.2C254.8-63.3,255.2-62.3,255.1-61.6"/>
	</g>
	<g class="st6">
		<path class="st0" d="M119.1-31.3v-4.3H119c-0.3,0.7-0.7,1.4-1.3,2c-0.6,0.6-1.2,1.1-1.9,1.5c-0.7,0.4-1.5,0.7-2.3,1
			c-0.8,0.2-1.6,0.3-2.5,0.3c-1.7,0-3.2-0.3-4.5-0.9c-1.3-0.6-2.3-1.5-3.2-2.6c-0.8-1.1-1.5-2.3-1.9-3.8c-0.4-1.4-0.6-2.9-0.6-4.5
			c0-1.6,0.2-3.1,0.6-4.5c0.4-1.4,1-2.7,1.9-3.8c0.8-1.1,1.9-1.9,3.2-2.6c1.3-0.6,2.7-1,4.5-1c0.8,0,1.7,0.1,2.5,0.3
			c0.8,0.2,1.5,0.5,2.2,0.9c0.7,0.4,1.3,0.9,1.8,1.5c0.5,0.6,0.9,1.3,1.2,2.1h0.1v-12.9h2.7v31H119.1z M104.1-39
			c0.3,1.1,0.7,2.2,1.3,3.1c0.6,0.9,1.4,1.6,2.3,2.2c0.9,0.6,2,0.8,3.3,0.8c1.4,0,2.7-0.3,3.7-0.8c1-0.6,1.8-1.3,2.4-2.2
			c0.6-0.9,1.1-1.9,1.3-3.1c0.3-1.1,0.4-2.3,0.4-3.5c0-1.2-0.1-2.3-0.4-3.5c-0.3-1.1-0.7-2.2-1.3-3.1c-0.6-0.9-1.4-1.6-2.4-2.2
			c-1-0.6-2.2-0.8-3.7-0.8c-1.3,0-2.4,0.3-3.3,0.8c-0.9,0.6-1.7,1.3-2.3,2.2c-0.6,0.9-1,1.9-1.3,3.1c-0.3,1.1-0.4,2.3-0.4,3.5
			C103.7-41.3,103.8-40.2,104.1-39z"/>
		<path class="st0" d="M139.8-53.4c1.3,0.6,2.4,1.5,3.3,2.6c0.9,1.1,1.6,2.3,2,3.8c0.5,1.4,0.7,3,0.7,4.6c0,1.6-0.2,3.2-0.7,4.6
			c-0.5,1.4-1.1,2.7-2,3.8c-0.9,1.1-2,1.9-3.3,2.5c-1.3,0.6-2.8,0.9-4.5,0.9c-1.7,0-3.2-0.3-4.5-0.9c-1.3-0.6-2.4-1.5-3.3-2.5
			c-0.9-1.1-1.6-2.3-2-3.8c-0.5-1.4-0.7-3-0.7-4.6c0-1.6,0.2-3.2,0.7-4.6c0.5-1.4,1.1-2.7,2-3.8c0.9-1.1,2-1.9,3.3-2.6
			c1.3-0.6,2.8-1,4.5-1C137-54.4,138.5-54,139.8-53.4z M131.8-51.2c-1,0.6-1.8,1.3-2.5,2.2c-0.7,0.9-1.1,1.9-1.5,3.1
			c-0.3,1.1-0.5,2.3-0.5,3.5c0,1.2,0.2,2.4,0.5,3.5c0.3,1.1,0.8,2.2,1.5,3.1c0.7,0.9,1.5,1.6,2.5,2.2c1,0.6,2.1,0.8,3.4,0.8
			c1.3,0,2.4-0.3,3.4-0.8c1-0.6,1.8-1.3,2.5-2.2c0.7-0.9,1.1-1.9,1.5-3.1c0.3-1.1,0.5-2.3,0.5-3.5c0-1.2-0.2-2.4-0.5-3.5
			c-0.3-1.1-0.8-2.2-1.5-3.1c-0.7-0.9-1.5-1.6-2.5-2.2c-1-0.6-2.1-0.8-3.4-0.8C134-52.1,132.8-51.8,131.8-51.2z"/>
		<path class="st0" d="M151.4-53.7v3.8h0.1c0.7-1.4,1.7-2.5,2.8-3.3c1.2-0.8,2.7-1.2,4.5-1.2c1.5,0,2.8,0.4,4,1.1
			c1.2,0.7,2,1.8,2.4,3.3c0.7-1.5,1.7-2.6,3-3.3c1.3-0.7,2.7-1.1,4.2-1.1c5,0,7.4,2.6,7.4,7.9v15.2h-2.7v-15.1
			c0-1.9-0.4-3.3-1.2-4.2c-0.8-1-2.2-1.5-4.1-1.5c-1.2,0-2.2,0.2-3,0.7c-0.8,0.4-1.4,1.1-1.9,1.8c-0.5,0.8-0.8,1.6-1,2.6
			c-0.2,1-0.3,2-0.3,3v12.7h-2.7v-15.2c0-0.8-0.1-1.5-0.2-2.2c-0.2-0.7-0.4-1.3-0.8-1.8c-0.4-0.5-0.8-0.9-1.5-1.2
			c-0.6-0.3-1.3-0.4-2.2-0.4c-1.2,0-2.2,0.2-3,0.6c-0.9,0.4-1.6,1-2.1,1.7c-0.5,0.7-0.9,1.6-1.2,2.6c-0.3,1-0.4,2.1-0.4,3.3v12.5
			h-2.7v-22.4H151.4z"/>
		<path class="st0" d="M184.7-50.2c0.5-1,1.1-1.7,1.9-2.3c0.8-0.6,1.7-1.1,2.8-1.3c1.1-0.3,2.3-0.4,3.6-0.4c1,0,2,0.1,3,0.3
			c1,0.2,1.9,0.5,2.7,1.1c0.8,0.5,1.4,1.3,1.9,2.2c0.5,0.9,0.7,2.2,0.7,3.7v11.9c0,1.1,0.5,1.7,1.6,1.7c0.3,0,0.6-0.1,0.9-0.2v2.3
			c-0.3,0.1-0.6,0.1-0.8,0.1c-0.2,0-0.6,0-0.9,0c-0.7,0-1.3-0.1-1.7-0.3c-0.4-0.2-0.7-0.5-1-0.8c-0.2-0.3-0.4-0.8-0.5-1.2
			c-0.1-0.5-0.1-1-0.1-1.6h-0.1c-0.5,0.7-1,1.4-1.5,1.9c-0.5,0.6-1.1,1-1.7,1.4c-0.6,0.4-1.3,0.7-2.1,0.9c-0.8,0.2-1.7,0.3-2.8,0.3
			c-1,0-2-0.1-2.9-0.4c-0.9-0.2-1.7-0.6-2.4-1.2c-0.7-0.5-1.2-1.2-1.6-2c-0.4-0.8-0.6-1.8-0.6-2.9c0-1.6,0.3-2.8,1-3.7
			c0.7-0.9,1.6-1.6,2.8-2c1.1-0.5,2.4-0.8,3.9-1c1.4-0.2,2.9-0.4,4.4-0.5c0.6-0.1,1.1-0.1,1.5-0.2c0.4-0.1,0.8-0.2,1.1-0.5
			c0.3-0.2,0.5-0.5,0.7-0.9c0.2-0.4,0.2-0.9,0.2-1.5c0-0.9-0.2-1.7-0.5-2.3c-0.3-0.6-0.7-1.1-1.3-1.4c-0.5-0.3-1.2-0.6-1.9-0.7
			c-0.7-0.1-1.5-0.2-2.3-0.2c-1.7,0-3.2,0.4-4.3,1.2c-1.1,0.8-1.7,2.2-1.7,4h-2.7C183.9-48.1,184.2-49.3,184.7-50.2z M198.4-43.5
			c-0.2,0.3-0.5,0.6-1,0.7c-0.5,0.1-0.9,0.2-1.3,0.3c-1.2,0.2-2.4,0.4-3.6,0.5c-1.2,0.2-2.4,0.4-3.4,0.7c-1,0.3-1.8,0.8-2.5,1.4
			c-0.7,0.6-1,1.4-1,2.5c0,0.7,0.1,1.3,0.4,1.8c0.3,0.5,0.6,1,1.1,1.4c0.5,0.4,1,0.7,1.6,0.9c0.6,0.2,1.2,0.3,1.9,0.3
			c1,0,2-0.2,3-0.5c1-0.3,1.8-0.8,2.5-1.4c0.7-0.6,1.3-1.3,1.7-2.2c0.4-0.9,0.6-1.9,0.6-3L198.4-43.5L198.4-43.5z"/>
		<path class="st0" d="M208.4-62.3v4.4h-2.7v-4.4H208.4z M208.4-53.7v22.4h-2.7v-22.4H208.4z"/>
		<path class="st0" d="M215.3-53.7v3.9h0.1c0.5-1.4,1.4-2.5,2.8-3.3c1.3-0.8,2.8-1.2,4.4-1.2c1.6,0,2.9,0.2,3.9,0.6
			c1.1,0.4,1.9,1,2.5,1.7c0.6,0.7,1.1,1.6,1.3,2.7c0.3,1.1,0.4,2.3,0.4,3.6v14.4h-2.7v-14c0-1-0.1-1.8-0.3-2.7
			c-0.2-0.8-0.5-1.5-0.9-2.2c-0.4-0.6-1-1.1-1.8-1.4c-0.7-0.3-1.7-0.5-2.8-0.5c-1.1,0-2.1,0.2-2.9,0.6c-0.9,0.4-1.6,0.9-2.2,1.6
			c-0.6,0.7-1.1,1.5-1.4,2.4c-0.3,0.9-0.5,2-0.5,3.1v13.1h-2.7v-22.4H215.3z"/>
		<path class="st0" d="M247.8-49.3c-0.3-0.6-0.7-1.1-1.3-1.5c-0.5-0.4-1.2-0.7-1.8-0.9c-0.7-0.2-1.4-0.3-2.2-0.3
			c-0.6,0-1.2,0.1-1.8,0.2c-0.6,0.1-1.2,0.3-1.7,0.7c-0.5,0.3-0.9,0.7-1.3,1.2c-0.3,0.5-0.5,1.1-0.5,1.8c0,0.6,0.2,1.1,0.5,1.5
			c0.3,0.4,0.7,0.8,1.2,1.1c0.5,0.3,1,0.5,1.5,0.7c0.6,0.2,1.1,0.3,1.5,0.5l3.7,0.8c0.8,0.1,1.6,0.3,2.3,0.6c0.8,0.3,1.4,0.7,2,1.2
			c0.6,0.5,1.1,1.1,1.5,1.8c0.4,0.7,0.6,1.6,0.6,2.6c0,1.2-0.3,2.3-0.8,3.1c-0.6,0.9-1.3,1.6-2.1,2.1c-0.9,0.5-1.8,0.9-2.9,1.2
			c-1.1,0.2-2.1,0.3-3.2,0.3c-2.6,0-4.8-0.6-6.4-1.9c-1.6-1.2-2.6-3.2-2.8-6h2.7c0.1,1.9,0.8,3.3,2,4.2c1.2,0.9,2.8,1.4,4.6,1.4
			c0.7,0,1.4-0.1,2.1-0.2c0.7-0.1,1.4-0.4,2-0.7c0.6-0.3,1.1-0.8,1.5-1.3c0.4-0.5,0.6-1.2,0.6-2c0-0.7-0.1-1.2-0.4-1.7
			c-0.3-0.4-0.6-0.8-1.1-1.1c-0.5-0.3-1-0.6-1.6-0.8c-0.6-0.2-1.2-0.4-1.8-0.5l-3.5-0.8c-0.9-0.2-1.7-0.5-2.5-0.8
			c-0.8-0.3-1.4-0.7-2-1.1c-0.6-0.4-1-1-1.3-1.7c-0.3-0.7-0.5-1.5-0.5-2.4c0-1.1,0.3-2.1,0.8-2.9c0.5-0.8,1.2-1.5,2-2
			c0.8-0.5,1.7-0.9,2.7-1.1c1-0.2,2-0.3,3-0.3c1.1,0,2.2,0.1,3.2,0.4c1,0.3,1.8,0.7,2.6,1.3c0.7,0.6,1.3,1.4,1.8,2.3
			c0.4,0.9,0.7,2,0.7,3.2h-2.7C248.3-48,248.2-48.7,247.8-49.3z"/>
	</g>
	<g class="st6">
		<path class="st0" d="M26.8-53.5c-0.4-0.6-0.9-1.2-1.5-1.7c-0.6-0.5-1.3-0.9-2-1.1c-0.8-0.3-1.5-0.4-2.4-0.4
			c-1.5,0-2.8,0.3-3.8,0.9c-1,0.6-1.9,1.4-2.5,2.3c-0.7,1-1.1,2.1-1.4,3.3c-0.3,1.2-0.4,2.5-0.4,3.9c0,1.3,0.1,2.5,0.4,3.7
			c0.3,1.2,0.8,2.3,1.4,3.2c0.7,1,1.5,1.7,2.5,2.3c1,0.6,2.3,0.9,3.8,0.9c2,0,3.6-0.6,4.8-1.9c1.1-1.2,1.8-2.9,2.1-4.9h6.5
			c-0.2,1.9-0.6,3.6-1.3,5.1c-0.7,1.5-1.6,2.8-2.8,3.9C29-32.8,27.6-32,26-31.4c-1.6,0.6-3.3,0.8-5.1,0.8c-2.3,0-4.4-0.4-6.3-1.2
			c-1.9-0.8-3.4-1.9-4.7-3.3c-1.3-1.4-2.3-3.1-2.9-5c-0.7-1.9-1-4-1-6.2c0-2.3,0.3-4.4,1-6.3c0.7-1.9,1.7-3.6,2.9-5.1
			c1.3-1.4,2.8-2.6,4.7-3.4c1.9-0.8,3.9-1.2,6.3-1.2c1.7,0,3.2,0.2,4.7,0.7c1.5,0.5,2.8,1.2,4,2.1c1.2,0.9,2.1,2.1,2.9,3.4
			c0.8,1.4,1.2,2.9,1.4,4.7h-6.5C27.4-52.2,27.2-52.9,26.8-53.5z"/>
		<path class="st0" d="M37.5-52.6c0.7-1.9,1.7-3.6,2.9-5.1c1.3-1.4,2.8-2.6,4.7-3.4c1.9-0.8,3.9-1.2,6.3-1.2c2.3,0,4.4,0.4,6.3,1.2
			c1.8,0.8,3.4,2,4.7,3.4c1.3,1.4,2.3,3.1,2.9,5.1c0.7,1.9,1,4,1,6.3c0,2.2-0.3,4.3-1,6.2c-0.7,1.9-1.7,3.6-2.9,5
			c-1.3,1.4-2.8,2.5-4.7,3.3c-1.8,0.8-3.9,1.2-6.3,1.2c-2.3,0-4.4-0.4-6.3-1.2c-1.9-0.8-3.4-1.9-4.7-3.3c-1.3-1.4-2.3-3.1-2.9-5
			c-0.7-1.9-1-4-1-6.2C36.4-48.6,36.8-50.7,37.5-52.6z M43.6-42.6c0.3,1.2,0.8,2.3,1.4,3.2c0.7,1,1.5,1.7,2.5,2.3
			c1,0.6,2.3,0.9,3.8,0.9c1.5,0,2.8-0.3,3.8-0.9c1-0.6,1.9-1.4,2.5-2.3c0.7-1,1.1-2,1.4-3.2c0.3-1.2,0.4-2.4,0.4-3.7
			c0-1.3-0.1-2.6-0.4-3.9c-0.3-1.2-0.8-2.4-1.4-3.3c-0.7-1-1.5-1.8-2.5-2.3c-1-0.6-2.3-0.9-3.8-0.9c-1.5,0-2.8,0.3-3.8,0.9
			c-1,0.6-1.9,1.4-2.5,2.3c-0.7,1-1.1,2.1-1.4,3.3c-0.3,1.2-0.4,2.5-0.4,3.9C43.1-45,43.3-43.8,43.6-42.6z"/>
		<path class="st0" d="M87.7-31.5c-1.4,0.6-2.9,0.9-4.4,0.9c-2.3,0-4.4-0.4-6.3-1.2c-1.9-0.8-3.4-1.9-4.7-3.3
			c-1.3-1.4-2.3-3.1-2.9-5c-0.7-1.9-1-4-1-6.2c0-2.3,0.3-4.4,1-6.3c0.7-1.9,1.7-3.6,2.9-5.1c1.3-1.4,2.8-2.6,4.7-3.4
			c1.9-0.8,3.9-1.2,6.3-1.2c1.6,0,3.1,0.2,4.5,0.7c1.5,0.5,2.8,1.2,3.9,2.1c1.2,0.9,2.1,2,2.9,3.4c0.8,1.3,1.2,2.9,1.4,4.6h-6.4
			c-0.4-1.7-1.2-3-2.3-3.8c-1.1-0.8-2.5-1.3-4.1-1.3c-1.5,0-2.8,0.3-3.8,0.9c-1,0.6-1.9,1.4-2.5,2.3c-0.7,1-1.1,2.1-1.4,3.3
			c-0.3,1.2-0.4,2.5-0.4,3.9c0,1.3,0.1,2.5,0.4,3.7c0.3,1.2,0.8,2.3,1.4,3.2c0.7,1,1.5,1.7,2.5,2.3c1,0.6,2.3,0.9,3.8,0.9
			c2.2,0,3.9-0.6,5.1-1.7c1.2-1.1,1.9-2.7,2.1-4.9h-6.7v-5h12.7v16.4h-4.2l-0.7-3.4C90.5-33.2,89.2-32.1,87.7-31.5z"/>
	</g>
</g>
<g class="st2">
	<path class="st5" d="M96.9-59.4v4.3H97c0.6-1.6,1.7-2.8,3.1-3.6c1.4-0.9,3.1-1.3,4.9-1.3c1.7,0,3.2,0.3,4.5,1
		c1.3,0.6,2.3,1.5,3.2,2.6c0.8,1.1,1.5,2.4,1.9,3.8c0.4,1.4,0.6,3,0.6,4.6c0,1.6-0.2,3.1-0.6,4.6c-0.4,1.4-1,2.7-1.9,3.8
		c-0.8,1.1-1.9,1.9-3.2,2.6c-1.3,0.6-2.8,0.9-4.5,0.9c-0.8,0-1.6-0.1-2.4-0.3c-0.8-0.2-1.6-0.5-2.3-0.9c-0.7-0.4-1.3-0.9-1.9-1.5
		c-0.5-0.6-1-1.3-1.2-2.1h-0.1v12.6h-2.7v-30.8H96.9z M111.9-51.6c-0.3-1.1-0.7-2.2-1.3-3.1c-0.6-0.9-1.4-1.6-2.3-2.2
		c-0.9-0.6-2.1-0.9-3.4-0.9c-1.5,0-2.8,0.3-3.8,0.8c-1,0.5-1.8,1.2-2.4,2.1c-0.6,0.9-1,1.9-1.3,3.1c-0.2,1.2-0.4,2.4-0.4,3.7
		c0,1.2,0.1,2.3,0.4,3.5c0.3,1.2,0.7,2.2,1.4,3.1c0.6,0.9,1.4,1.6,2.4,2.2c1,0.6,2.2,0.9,3.7,0.9c1.3,0,2.4-0.3,3.4-0.9
		c0.9-0.6,1.7-1.3,2.3-2.2c0.6-0.9,1-1.9,1.3-3.1c0.3-1.1,0.4-2.3,0.4-3.5C112.4-49.3,112.2-50.5,111.9-51.6z"/>
	<path class="st5" d="M120.8-59.4v5.3h0.1c0.7-1.8,1.8-3.2,3.3-4.2c1.5-1,3.2-1.4,5.3-1.4v2.7c-1.3-0.1-2.4,0.1-3.4,0.5
		c-1,0.4-1.9,1-2.6,1.7c-0.7,0.7-1.3,1.6-1.7,2.6c-0.4,1-0.6,2.1-0.6,3.3v12h-2.7v-22.5H120.8z"/>
	<path class="st5" d="M134.8-68v4.4h-2.7V-68H134.8z M134.8-59.4v22.5h-2.7v-22.5H134.8z"/>
	<path class="st5" d="M142.8-59.4v3.9h0.1c0.5-1.4,1.5-2.5,2.8-3.3c1.3-0.8,2.8-1.2,4.4-1.2c1.6,0,2.9,0.2,3.9,0.6
		c1.1,0.4,1.9,1,2.6,1.7c0.6,0.7,1.1,1.7,1.4,2.7c0.3,1.1,0.4,2.3,0.4,3.6v14.5h-2.7v-14c0-1-0.1-1.9-0.3-2.7
		c-0.2-0.8-0.5-1.5-0.9-2.2c-0.4-0.6-1-1.1-1.8-1.4c-0.7-0.3-1.7-0.5-2.8-0.5c-1.1,0-2.1,0.2-2.9,0.6c-0.9,0.4-1.6,0.9-2.2,1.6
		c-0.6,0.7-1.1,1.5-1.4,2.4c-0.3,0.9-0.5,2-0.5,3.1v13.1h-2.7v-22.5H142.8z"/>
	<path class="st5" d="M171.4-59.4v2.3h-4.6v15.2c0,0.9,0.1,1.6,0.4,2.1c0.2,0.5,0.9,0.8,1.9,0.9c0.8,0,1.6,0,2.4-0.1v2.3
		c-0.4,0-0.8,0-1.2,0c-0.4,0-0.8,0-1.2,0c-1.8,0-3.1-0.4-3.8-1.1c-0.7-0.7-1.1-2-1-3.9v-15.4h-3.9v-2.3h3.9v-6.8h2.7v6.8H171.4z"/>
	<path class="st5" d="M16.5-59.2c-0.4-0.6-0.9-1.2-1.5-1.7c-0.6-0.5-1.3-0.9-2-1.1c-0.8-0.3-1.5-0.4-2.4-0.4c-1.5,0-2.8,0.3-3.8,0.9
		c-1.1,0.6-1.9,1.4-2.6,2.3c-0.7,1-1.1,2.1-1.4,3.3c-0.3,1.3-0.4,2.5-0.4,3.9c0,1.3,0.1,2.5,0.4,3.7C3.1-47,3.6-45.9,4.2-45
		c0.7,1,1.5,1.7,2.6,2.3c1.1,0.6,2.3,0.9,3.8,0.9c2,0,3.6-0.6,4.8-1.9c1.2-1.3,1.9-2.9,2.1-4.9H24c-0.2,1.9-0.6,3.6-1.3,5.2
		c-0.7,1.5-1.6,2.8-2.8,3.9c-1.2,1.1-2.5,1.9-4.1,2.5c-1.6,0.6-3.3,0.9-5.2,0.9c-2.3,0-4.4-0.4-6.3-1.2c-1.9-0.8-3.4-1.9-4.7-3.3
		c-1.3-1.4-2.3-3.1-2.9-5c-0.7-1.9-1-4-1-6.2c0-2.3,0.3-4.4,1-6.3c0.7-1.9,1.7-3.6,2.9-5.1c1.3-1.4,2.8-2.6,4.7-3.4
		c1.9-0.8,4-1.2,6.3-1.2c1.7,0,3.3,0.2,4.8,0.7c1.5,0.5,2.8,1.2,4,2.1c1.2,0.9,2.2,2.1,2.9,3.4c0.8,1.4,1.2,2.9,1.4,4.7h-6.5
		C17.1-57.8,16.9-58.5,16.5-59.2z"/>
	<path class="st5" d="M27.2-58.3c0.7-1.9,1.7-3.6,2.9-5.1c1.3-1.4,2.8-2.6,4.7-3.4c1.9-0.8,4-1.2,6.3-1.2c2.4,0,4.5,0.4,6.3,1.2
		c1.8,0.8,3.4,2,4.7,3.4c1.3,1.4,2.3,3.1,2.9,5.1c0.7,1.9,1,4.1,1,6.3c0,2.2-0.3,4.3-1,6.2c-0.7,1.9-1.7,3.6-2.9,5
		c-1.3,1.4-2.8,2.5-4.7,3.3c-1.8,0.8-3.9,1.2-6.3,1.2c-2.3,0-4.4-0.4-6.3-1.2c-1.9-0.8-3.4-1.9-4.7-3.3c-1.3-1.4-2.3-3.1-2.9-5
		c-0.7-1.9-1-4-1-6.2C26.2-54.2,26.5-56.3,27.2-58.3z M33.3-48.2c0.3,1.2,0.8,2.3,1.4,3.3c0.7,1,1.5,1.7,2.6,2.3
		c1.1,0.6,2.3,0.9,3.8,0.9c1.5,0,2.8-0.3,3.8-0.9c1.1-0.6,1.9-1.4,2.6-2.3c0.7-1,1.1-2.1,1.4-3.3c0.3-1.2,0.4-2.5,0.4-3.7
		c0-1.3-0.1-2.6-0.4-3.9c-0.3-1.2-0.8-2.4-1.4-3.3c-0.7-1-1.5-1.8-2.6-2.3c-1.1-0.6-2.3-0.9-3.8-0.9c-1.5,0-2.8,0.3-3.8,0.9
		c-1.1,0.6-1.9,1.4-2.6,2.3c-0.7,1-1.1,2.1-1.4,3.3c-0.3,1.3-0.4,2.5-0.4,3.9C32.8-50.7,33-49.4,33.3-48.2z"/>
	<path class="st5" d="M77.6-37.1c-1.4,0.6-2.9,0.9-4.4,0.9c-2.3,0-4.4-0.4-6.3-1.2c-1.9-0.8-3.4-1.9-4.7-3.3c-1.3-1.4-2.3-3.1-2.9-5
		c-0.7-1.9-1-4-1-6.2c0-2.3,0.3-4.4,1-6.3c0.7-1.9,1.7-3.6,2.9-5.1c1.3-1.4,2.8-2.6,4.7-3.4c1.9-0.8,4-1.2,6.3-1.2
		c1.6,0,3.1,0.2,4.5,0.7c1.5,0.5,2.8,1.2,4,2.1c1.2,0.9,2.2,2,2.9,3.4c0.8,1.3,1.2,2.9,1.4,4.6h-6.4c-0.4-1.7-1.2-3-2.3-3.8
		c-1.1-0.9-2.5-1.3-4.1-1.3c-1.5,0-2.8,0.3-3.8,0.9c-1.1,0.6-1.9,1.4-2.6,2.3c-0.7,1-1.1,2.1-1.4,3.3c-0.3,1.3-0.4,2.5-0.4,3.9
		c0,1.3,0.1,2.5,0.4,3.7c0.3,1.2,0.8,2.3,1.4,3.3c0.7,1,1.5,1.7,2.6,2.3c1.1,0.6,2.3,0.9,3.8,0.9c2.2,0,3.9-0.6,5.1-1.7
		c1.2-1.1,1.9-2.7,2.1-4.9h-6.7v-5h12.8v16.5h-4.3l-0.7-3.5C80.4-38.8,79-37.7,77.6-37.1z"/>
	<g class="st6">
		<path class="st8" d="M176.7-60.7c-2.2-0.2-3.7-2.2-3.5-4.4c0.2-2.2,2.2-3.7,4.4-3.5c2.2,0.2,3.7,2.2,3.5,4.4
			C180.8-62,178.9-60.5,176.7-60.7z"/>
		<path class="st1" d="M177.9-66.5c0.3,0.2,0.6,0.5,1,1.2l-0.8-2.7c0,0-1.6-0.5-3.1,0.6c0,0,1.1-0.4,2.4-0.1c0,0-1.3,0-1.9,0.5
			c0,0,0.8-0.4,2,0c0,0-0.8,0-1.4,0.2C176.1-66.8,177.3-66.9,177.9-66.5z"/>
		<path class="st1" d="M175.6-65.9c0.3-0.3,0.6-0.5,1.4-0.6l-2.8-0.1c0,0-1,1.4-0.4,3.2c0,0-0.1-1.2,0.6-2.4c0,0-0.4,1.2-0.1,2
			c0,0-0.2-0.9,0.6-1.9c0,0-0.2,0.8-0.2,1.4C174.7-64.3,175-65.5,175.6-65.9z"/>
		<path class="st1" d="M175.4-63.5c-0.2-0.4-0.3-0.7-0.1-1.5l-0.9,2.7c0,0,1,1.4,2.9,1.3c0,0-1.2-0.3-2.1-1.3c0,0,1.1,0.7,1.9,0.7
			c0,0-0.9-0.1-1.6-1.1c0,0,0.7,0.5,1.2,0.6C176.7-62.2,175.7-62.9,175.4-63.5z"/>
		<path class="st1" d="M177.6-62.6c-0.4,0-0.8,0-1.5-0.4l2.2,1.7c0,0,1.6-0.5,2.2-2.3c0,0-0.6,1-1.9,1.5c0,0,1-0.8,1.3-1.6
			c0,0-0.4,0.8-1.6,1.2c0,0,0.7-0.5,1-1C179.2-63.4,178.3-62.7,177.6-62.6z"/>
		<path class="st1" d="M179.1-64.5c-0.1,0.4-0.2,0.7-0.8,1.3l2.3-1.6c0,0,0-1.7-1.6-2.8c0,0,0.8,0.9,0.9,2.3c0,0-0.4-1.2-1.1-1.7
			c0,0,0.7,0.6,0.7,1.9c0,0-0.3-0.8-0.6-1.2C178.9-66.3,179.3-65.2,179.1-64.5z"/>
	</g>
</g>
<g class="st2">
	<g class="st6">
		<path class="st0" d="M108-48.7v4.3h0.1c0.6-1.6,1.7-2.8,3.2-3.7c1.5-0.9,3.1-1.3,5-1.3c1.7,0,3.2,0.3,4.5,1
			c1.3,0.6,2.3,1.5,3.2,2.6c0.9,1.1,1.5,2.4,1.9,3.8c0.4,1.5,0.6,3,0.6,4.6c0,1.6-0.2,3.2-0.6,4.6c-0.4,1.5-1,2.7-1.9,3.8
			c-0.9,1.1-1.9,2-3.2,2.6c-1.3,0.6-2.8,0.9-4.5,0.9c-0.8,0-1.6-0.1-2.5-0.3c-0.8-0.2-1.6-0.5-2.3-0.9c-0.7-0.4-1.3-0.9-1.9-1.5
			c-0.5-0.6-1-1.3-1.3-2.2h-0.1v12.7h-2.8v-31.1H108z M123.3-40.8c-0.3-1.2-0.7-2.2-1.3-3.1c-0.6-0.9-1.4-1.7-2.3-2.2
			c-0.9-0.6-2.1-0.9-3.4-0.9c-1.5,0-2.8,0.3-3.8,0.8c-1,0.5-1.9,1.2-2.5,2.1c-0.6,0.9-1.1,1.9-1.3,3.1c-0.3,1.2-0.4,2.4-0.4,3.7
			c0,1.2,0.1,2.3,0.4,3.5c0.3,1.2,0.7,2.2,1.4,3.1c0.6,0.9,1.5,1.7,2.5,2.2c1,0.6,2.3,0.9,3.7,0.9c1.3,0,2.5-0.3,3.4-0.9
			c0.9-0.6,1.7-1.3,2.3-2.2c0.6-0.9,1-1.9,1.3-3.1c0.3-1.2,0.4-2.3,0.4-3.5C123.7-38.5,123.5-39.6,123.3-40.8z"/>
		<path class="st0" d="M132.2-48.7v5.3h0.1c0.7-1.9,1.8-3.3,3.3-4.3c1.5-1,3.3-1.5,5.3-1.4v2.8c-1.3-0.1-2.4,0.1-3.4,0.5
			c-1,0.4-1.9,1-2.7,1.7c-0.7,0.7-1.3,1.6-1.7,2.6c-0.4,1-0.6,2.1-0.6,3.3v12.1h-2.8v-22.8H132.2z"/>
		<path class="st0" d="M155.9-48.4c1.3,0.6,2.5,1.5,3.4,2.6c0.9,1.1,1.6,2.4,2.1,3.8c0.5,1.5,0.7,3,0.7,4.7c0,1.6-0.2,3.2-0.7,4.7
			c-0.5,1.5-1.2,2.7-2.1,3.8c-0.9,1.1-2,1.9-3.4,2.6c-1.3,0.6-2.9,0.9-4.6,0.9c-1.7,0-3.3-0.3-4.6-0.9c-1.3-0.6-2.5-1.5-3.4-2.6
			c-0.9-1.1-1.6-2.4-2.1-3.8c-0.5-1.5-0.7-3-0.7-4.7c0-1.6,0.2-3.2,0.7-4.7c0.5-1.5,1.2-2.7,2.1-3.8c0.9-1.1,2-2,3.4-2.6
			c1.3-0.6,2.9-1,4.6-1C153-49.3,154.5-49,155.9-48.4z M147.8-46.2c-1,0.6-1.8,1.3-2.5,2.2c-0.7,0.9-1.2,1.9-1.5,3.1
			c-0.3,1.2-0.5,2.3-0.5,3.6c0,1.2,0.2,2.4,0.5,3.6c0.3,1.2,0.8,2.2,1.5,3.1c0.7,0.9,1.5,1.6,2.5,2.2c1,0.6,2.2,0.8,3.5,0.8
			c1.3,0,2.5-0.3,3.5-0.8c1-0.6,1.8-1.3,2.5-2.2c0.7-0.9,1.2-1.9,1.5-3.1c0.3-1.2,0.5-2.3,0.5-3.6c0-1.2-0.2-2.4-0.5-3.6
			c-0.3-1.2-0.8-2.2-1.5-3.1c-0.7-0.9-1.5-1.6-2.5-2.2c-1-0.6-2.2-0.8-3.5-0.8C150-47,148.8-46.7,147.8-46.2z"/>
		<path class="st0" d="M167.6-48.7v3.8h0.1c0.7-1.4,1.7-2.5,2.9-3.3c1.2-0.8,2.7-1.2,4.6-1.2c1.5,0,2.9,0.4,4.1,1.1
			c1.2,0.7,2,1.9,2.4,3.4c0.7-1.5,1.7-2.6,3-3.4c1.3-0.7,2.7-1.1,4.2-1.1c5,0,7.5,2.7,7.5,8v15.4h-2.8v-15.3c0-1.9-0.4-3.3-1.2-4.3
			c-0.8-1-2.2-1.5-4.2-1.5c-1.2,0-2.2,0.2-3,0.7c-0.8,0.5-1.4,1.1-1.9,1.8c-0.5,0.8-0.8,1.6-1,2.6c-0.2,1-0.3,2-0.3,3.1v12.9h-2.8
			v-15.4c0-0.8-0.1-1.5-0.2-2.2c-0.2-0.7-0.4-1.3-0.8-1.8c-0.4-0.5-0.9-0.9-1.5-1.2c-0.6-0.3-1.4-0.4-2.2-0.4
			c-1.2,0-2.2,0.2-3.1,0.6c-0.9,0.4-1.6,1-2.1,1.8c-0.5,0.7-0.9,1.6-1.2,2.6c-0.3,1-0.4,2.1-0.4,3.3v12.7h-2.8v-22.8H167.6z"/>
		<path class="st0" d="M214.9-48.4c1.3,0.6,2.5,1.5,3.4,2.6c0.9,1.1,1.6,2.4,2.1,3.8c0.5,1.5,0.7,3,0.7,4.7c0,1.6-0.2,3.2-0.7,4.7
			c-0.5,1.5-1.2,2.7-2.1,3.8c-0.9,1.1-2,1.9-3.4,2.6c-1.3,0.6-2.9,0.9-4.6,0.9c-1.7,0-3.3-0.3-4.6-0.9c-1.3-0.6-2.5-1.5-3.4-2.6
			c-0.9-1.1-1.6-2.4-2.1-3.8c-0.5-1.5-0.7-3-0.7-4.7c0-1.6,0.2-3.2,0.7-4.7c0.5-1.5,1.2-2.7,2.1-3.8c0.9-1.1,2-2,3.4-2.6
			c1.3-0.6,2.9-1,4.6-1C212.1-49.3,213.6-49,214.9-48.4z M206.8-46.2c-1,0.6-1.8,1.3-2.5,2.2c-0.7,0.9-1.2,1.9-1.5,3.1
			c-0.3,1.2-0.5,2.3-0.5,3.6c0,1.2,0.2,2.4,0.5,3.6c0.3,1.2,0.8,2.2,1.5,3.1c0.7,0.9,1.5,1.6,2.5,2.2c1,0.6,2.2,0.8,3.5,0.8
			c1.3,0,2.5-0.3,3.5-0.8c1-0.6,1.8-1.3,2.5-2.2c0.7-0.9,1.2-1.9,1.5-3.1c0.3-1.2,0.5-2.3,0.5-3.6c0-1.2-0.2-2.4-0.5-3.6
			c-0.3-1.2-0.8-2.2-1.5-3.1c-0.7-0.9-1.5-1.6-2.5-2.2c-1-0.6-2.2-0.8-3.5-0.8C209-47,207.8-46.7,206.8-46.2z"/>
	</g>
	<g class="st6">
		<path class="st0" d="M26.8-48.5c-0.4-0.6-0.9-1.2-1.5-1.7c-0.6-0.5-1.3-0.9-2-1.1c-0.8-0.3-1.6-0.4-2.4-0.4
			c-1.5,0-2.8,0.3-3.9,0.9c-1.1,0.6-1.9,1.4-2.6,2.4c-0.7,1-1.1,2.1-1.4,3.4c-0.3,1.3-0.5,2.6-0.5,3.9c0,1.3,0.2,2.5,0.5,3.8
			c0.3,1.2,0.8,2.3,1.4,3.3c0.7,1,1.5,1.8,2.6,2.3c1.1,0.6,2.4,0.9,3.9,0.9c2.1,0,3.7-0.6,4.8-1.9c1.2-1.3,1.9-2.9,2.1-5h6.5
			c-0.2,1.9-0.6,3.7-1.3,5.2c-0.7,1.6-1.7,2.9-2.8,4c-1.2,1.1-2.6,1.9-4.1,2.5c-1.6,0.6-3.3,0.9-5.2,0.9c-2.4,0-4.5-0.4-6.4-1.2
			c-1.9-0.8-3.5-1.9-4.8-3.4c-1.3-1.4-2.3-3.1-3-5.1c-0.7-1.9-1-4-1-6.3c0-2.3,0.3-4.4,1-6.4c0.7-2,1.7-3.7,3-5.1
			c1.3-1.5,2.9-2.6,4.8-3.4c1.9-0.8,4-1.2,6.4-1.2c1.7,0,3.3,0.2,4.8,0.7c1.5,0.5,2.9,1.2,4,2.1c1.2,0.9,2.2,2.1,3,3.5
			c0.8,1.4,1.3,3,1.5,4.7h-6.5C27.4-47.1,27.2-47.8,26.8-48.5z"/>
		<path class="st0" d="M37.6-47.6c0.7-2,1.7-3.7,3-5.1c1.3-1.5,2.9-2.6,4.8-3.4c1.9-0.8,4-1.2,6.4-1.2c2.4,0,4.5,0.4,6.4,1.2
			c1.9,0.8,3.4,2,4.7,3.4c1.3,1.5,2.3,3.2,3,5.1c0.7,2,1,4.1,1,6.4c0,2.2-0.3,4.3-1,6.3c-0.7,1.9-1.7,3.6-3,5.1
			c-1.3,1.4-2.9,2.6-4.7,3.4c-1.9,0.8-4,1.2-6.4,1.2c-2.4,0-4.5-0.4-6.4-1.2c-1.9-0.8-3.5-1.9-4.8-3.4c-1.3-1.4-2.3-3.1-3-5.1
			c-0.7-1.9-1-4-1-6.3C36.5-43.5,36.9-45.6,37.6-47.6z M43.8-37.4c0.3,1.2,0.8,2.3,1.4,3.3c0.7,1,1.5,1.8,2.6,2.3
			c1.1,0.6,2.4,0.9,3.9,0.9c1.5,0,2.8-0.3,3.9-0.9c1.1-0.6,1.9-1.4,2.6-2.3c0.7-1,1.1-2.1,1.4-3.3c0.3-1.2,0.5-2.5,0.5-3.8
			c0-1.3-0.2-2.7-0.5-3.9c-0.3-1.3-0.8-2.4-1.4-3.4c-0.7-1-1.5-1.8-2.6-2.4c-1.1-0.6-2.4-0.9-3.9-0.9c-1.5,0-2.8,0.3-3.9,0.9
			c-1.1,0.6-1.9,1.4-2.6,2.4c-0.7,1-1.1,2.1-1.4,3.4c-0.3,1.3-0.5,2.6-0.5,3.9C43.3-39.9,43.5-38.6,43.8-37.4z"/>
		<path class="st0" d="M88.5-26.2c-1.5,0.6-2.9,0.9-4.4,0.9c-2.4,0-4.5-0.4-6.4-1.2c-1.9-0.8-3.5-1.9-4.8-3.4
			c-1.3-1.4-2.3-3.1-3-5.1c-0.7-1.9-1-4-1-6.3c0-2.3,0.3-4.4,1-6.4c0.7-2,1.7-3.7,3-5.1c1.3-1.5,2.9-2.6,4.8-3.4
			c1.9-0.8,4-1.2,6.4-1.2c1.6,0,3.1,0.2,4.6,0.7c1.5,0.5,2.8,1.2,4,2.1c1.2,0.9,2.2,2.1,3,3.4c0.8,1.4,1.2,2.9,1.4,4.7h-6.5
			c-0.4-1.7-1.2-3-2.3-3.9c-1.1-0.9-2.5-1.3-4.2-1.3c-1.5,0-2.8,0.3-3.9,0.9c-1.1,0.6-1.9,1.4-2.6,2.4c-0.7,1-1.1,2.1-1.4,3.4
			c-0.3,1.3-0.5,2.6-0.5,3.9c0,1.3,0.2,2.5,0.5,3.8c0.3,1.2,0.8,2.3,1.4,3.3c0.7,1,1.5,1.8,2.6,2.3c1.1,0.6,2.4,0.9,3.9,0.9
			c2.2,0,4-0.6,5.2-1.7c1.2-1.1,1.9-2.8,2.1-4.9h-6.8v-5h12.9v16.6h-4.3l-0.7-3.5C91.3-27.9,90-26.8,88.5-26.2z"/>
	</g>
	<g class="st6">
		<path class="st9" d="M223.8-49.6c-2.2-0.2-3.8-2.2-3.5-4.4c0.2-2.2,2.2-3.8,4.4-3.5c2.2,0.2,3.8,2.2,3.5,4.4
			C228-50.9,226-49.3,223.8-49.6z"/>
		<path class="st1" d="M225-55.4c0.4,0.2,0.6,0.5,1,1.2l-0.8-2.7c0,0-1.6-0.5-3.2,0.6c0,0,1.1-0.4,2.5-0.1c0,0-1.3,0-2,0.5
			c0,0,0.8-0.4,2,0c0,0-0.8,0-1.4,0.2C223.2-55.8,224.4-55.8,225-55.4z"/>
		<path class="st1" d="M222.7-54.9c0.3-0.3,0.6-0.5,1.4-0.6l-2.9-0.1c0,0-1,1.4-0.4,3.2c0,0-0.1-1.2,0.6-2.4c0,0-0.4,1.3-0.1,2
			c0,0-0.2-0.9,0.6-1.9c0,0-0.2,0.8-0.2,1.4C221.8-53.2,222.1-54.4,222.7-54.9z"/>
		<path class="st1" d="M222.5-52.4c-0.2-0.4-0.3-0.8-0.1-1.5l-0.9,2.7c0,0,1,1.4,2.9,1.3c0,0-1.2-0.3-2.1-1.3c0,0,1.1,0.7,1.9,0.7
			c0,0-0.9-0.1-1.7-1.1c0,0,0.7,0.5,1.3,0.6C223.8-51.1,222.8-51.8,222.5-52.4z"/>
		<path class="st1" d="M224.7-51.5c-0.4,0-0.8,0-1.5-0.4l2.3,1.8c0,0,1.6-0.5,2.2-2.3c0,0-0.7,1-1.9,1.5c0,0,1.1-0.8,1.3-1.6
			c0,0-0.4,0.8-1.6,1.2c0,0,0.7-0.5,1-1C226.4-52.3,225.4-51.5,224.7-51.5z"/>
		<path class="st1" d="M226.3-53.4c-0.1,0.4-0.2,0.8-0.8,1.3l2.4-1.6c0,0,0-1.7-1.6-2.8c0,0,0.8,0.9,0.9,2.3c0,0-0.4-1.2-1.1-1.7
			c0,0,0.7,0.6,0.7,1.9c0,0-0.3-0.8-0.7-1.2C226-55.2,226.4-54.1,226.3-53.4z"/>
	</g>
</g>
<g class="st2">
	<path class="st10" d="M228.3-52.2c-2.1-0.2-3.5-2-3.3-4c0.2-2,2.1-3.5,4.1-3.2c2.1,0.2,3.5,2,3.3,4
		C232.2-53.4,230.4-51.9,228.3-52.2z"/>
	<path class="st4" d="M229.5-57.5c0.3,0.2,0.6,0.4,0.9,1.1l-0.7-2.5c0,0-1.5-0.5-3,0.5c0,0,1.1-0.4,2.3-0.1c0,0-1.2,0-1.8,0.5
		c0,0,0.8-0.4,1.9,0c0,0-0.8,0-1.3,0.2C227.8-57.8,228.9-57.9,229.5-57.5z"/>
	<path class="st4" d="M227.2-57c0.3-0.2,0.6-0.4,1.3-0.5l-2.7,0c0,0-0.9,1.3-0.3,2.9c0,0-0.1-1.1,0.6-2.2c0,0-0.3,1.2-0.1,1.9
		c0,0-0.2-0.8,0.5-1.8c0,0-0.2,0.7-0.2,1.3C226.4-55.5,226.7-56.6,227.2-57z"/>
	<path class="st4" d="M227.1-54.8c-0.2-0.4-0.2-0.7-0.1-1.4l-0.9,2.5c0,0,1,1.3,2.7,1.2c0,0-1.1-0.3-2-1.2c0,0,1,0.7,1.8,0.6
		c0,0-0.9-0.1-1.6-1c0,0,0.6,0.4,1.2,0.5C228.3-53.6,227.3-54.2,227.1-54.8z"/>
	<path class="st4" d="M229.2-53.9c-0.4,0-0.7,0-1.4-0.3l2.1,1.6c0,0,1.5-0.5,2.1-2.1c0,0-0.6,0.9-1.8,1.4c0,0,1-0.7,1.2-1.4
		c0,0-0.4,0.8-1.5,1.1c0,0,0.6-0.4,0.9-0.9C230.7-54.7,229.8-54,229.2-53.9z"/>
	<path class="st4" d="M230.6-55.6c-0.1,0.4-0.2,0.7-0.7,1.2l2.2-1.5c0,0,0-1.6-1.5-2.6c0,0,0.7,0.8,0.8,2.1c0,0-0.4-1.1-1.1-1.5
		c0,0,0.6,0.6,0.6,1.7c0,0-0.2-0.7-0.6-1.1C230.4-57.3,230.8-56.3,230.6-55.6z"/>
	<path class="st5" d="M101.3-45c-0.3-0.6-0.7-1.1-1.2-1.5c-0.5-0.4-1.1-0.7-1.8-0.8c-0.7-0.2-1.4-0.3-2.1-0.3
		c-0.6,0-1.2,0.1-1.8,0.2c-0.6,0.1-1.1,0.3-1.6,0.6c-0.5,0.3-0.9,0.7-1.2,1.1c-0.3,0.5-0.5,1-0.5,1.7c0,0.6,0.1,1.1,0.4,1.5
		c0.3,0.4,0.7,0.7,1.1,1c0.4,0.3,0.9,0.5,1.4,0.7c0.5,0.2,1,0.3,1.4,0.4l3.5,0.8c0.7,0.1,1.5,0.3,2.2,0.6c0.7,0.3,1.4,0.7,1.9,1.1
		c0.6,0.5,1,1,1.4,1.7c0.4,0.7,0.5,1.5,0.5,2.4c0,1.2-0.3,2.1-0.8,2.9c-0.5,0.8-1.2,1.5-2,2c-0.8,0.5-1.7,0.9-2.7,1.1
		c-1,0.2-2,0.3-3,0.3c-2.5,0-4.5-0.6-6.1-1.8c-1.6-1.2-2.4-3.1-2.7-5.7h2.6c0.1,1.8,0.7,3.1,1.9,4c1.2,0.9,2.6,1.3,4.3,1.3
		c0.6,0,1.3-0.1,2-0.2c0.7-0.1,1.3-0.4,1.9-0.7c0.6-0.3,1.1-0.7,1.4-1.3c0.4-0.5,0.6-1.1,0.6-1.9c0-0.6-0.1-1.2-0.4-1.6
		s-0.6-0.8-1.1-1.1c-0.4-0.3-0.9-0.5-1.5-0.7c-0.6-0.2-1.1-0.4-1.7-0.5l-3.3-0.7c-0.9-0.2-1.6-0.5-2.3-0.8c-0.7-0.3-1.3-0.6-1.9-1.1
		c-0.5-0.4-1-0.9-1.3-1.6c-0.3-0.6-0.5-1.4-0.5-2.3c0-1.1,0.2-2,0.7-2.8c0.5-0.8,1.1-1.4,1.9-1.9c0.8-0.5,1.6-0.8,2.6-1
		c0.9-0.2,1.9-0.3,2.8-0.3c1.1,0,2.1,0.1,3,0.4c0.9,0.3,1.7,0.7,2.4,1.3c0.7,0.6,1.3,1.3,1.7,2.1c0.4,0.9,0.6,1.9,0.7,3h-2.6
		C101.8-43.7,101.6-44.4,101.3-45z"/>
	<path class="st5" d="M116.3-49.2v2.2H112v14.3c0,0.9,0.1,1.5,0.4,2c0.2,0.5,0.8,0.7,1.8,0.8c0.7,0,1.5,0,2.2-0.1v2.2
		c-0.4,0-0.8,0-1.2,0c-0.4,0-0.8,0-1.2,0c-1.7,0-2.9-0.3-3.6-1c-0.7-0.7-1-1.9-1-3.7V-47h-3.7v-2.2h3.7v-6.4h2.6v6.4H116.3z"/>
	<path class="st5" d="M121.4-49.2v5h0.1c0.7-1.7,1.7-3.1,3.1-4c1.4-0.9,3-1.4,5-1.3v2.6c-1.2-0.1-2.3,0.1-3.2,0.5
		c-1,0.4-1.8,0.9-2.5,1.6c-0.7,0.7-1.2,1.5-1.6,2.5c-0.4,0.9-0.6,2-0.6,3.1v11.3H119v-21.3H121.4z"/>
	<path class="st5" d="M131.5-45.9c0.4-0.9,1-1.6,1.8-2.2c0.8-0.6,1.6-1,2.7-1.3c1-0.3,2.1-0.4,3.4-0.4c0.9,0,1.9,0.1,2.8,0.3
		c0.9,0.2,1.8,0.5,2.5,1c0.7,0.5,1.3,1.2,1.8,2.1c0.5,0.9,0.7,2.1,0.7,3.5v11.3c0,1,0.5,1.6,1.5,1.6c0.3,0,0.6-0.1,0.8-0.2v2.2
		c-0.3,0.1-0.6,0.1-0.8,0.1c-0.2,0-0.5,0-0.9,0c-0.7,0-1.2-0.1-1.6-0.3c-0.4-0.2-0.7-0.4-0.9-0.8c-0.2-0.3-0.4-0.7-0.4-1.2
		c-0.1-0.5-0.1-1-0.1-1.5h-0.1c-0.5,0.7-0.9,1.3-1.4,1.8c-0.5,0.5-1,1-1.6,1.3c-0.6,0.4-1.3,0.6-2,0.8c-0.8,0.2-1.7,0.3-2.7,0.3
		c-1,0-1.9-0.1-2.8-0.3c-0.9-0.2-1.6-0.6-2.3-1.1c-0.6-0.5-1.2-1.2-1.5-1.9c-0.4-0.8-0.6-1.7-0.6-2.8c0-1.5,0.3-2.6,1-3.5
		c0.7-0.8,1.5-1.5,2.6-1.9c1.1-0.4,2.3-0.7,3.7-0.9c1.4-0.2,2.7-0.4,4.1-0.5c0.5-0.1,1-0.1,1.4-0.2c0.4-0.1,0.8-0.2,1-0.4
		c0.3-0.2,0.5-0.5,0.6-0.8c0.2-0.4,0.2-0.8,0.2-1.4c0-0.9-0.1-1.6-0.4-2.2c-0.3-0.6-0.7-1-1.2-1.3s-1.1-0.6-1.8-0.7
		c-0.7-0.1-1.4-0.2-2.2-0.2c-1.6,0-3,0.4-4,1.2c-1,0.8-1.6,2-1.6,3.8h-2.6C130.8-43.9,131.1-45,131.5-45.9z M144.5-39.5
		c-0.2,0.3-0.5,0.5-0.9,0.7c-0.5,0.1-0.9,0.2-1.2,0.3c-1.1,0.2-2.2,0.4-3.4,0.5c-1.2,0.2-2.2,0.4-3.2,0.7c-1,0.3-1.8,0.7-2.4,1.3
		c-0.6,0.6-0.9,1.4-0.9,2.4c0,0.7,0.1,1.2,0.4,1.8c0.3,0.5,0.6,0.9,1.1,1.3c0.4,0.4,0.9,0.7,1.5,0.8c0.6,0.2,1.2,0.3,1.8,0.3
		c1,0,1.9-0.2,2.8-0.5c0.9-0.3,1.7-0.7,2.4-1.3c0.7-0.6,1.2-1.3,1.6-2.1c0.4-0.8,0.6-1.8,0.6-2.8L144.5-39.5L144.5-39.5z"/>
	<path class="st5" d="M159.8-49.2v2.2h-4.3v14.3c0,0.9,0.1,1.5,0.3,2c0.2,0.5,0.8,0.7,1.8,0.8c0.7,0,1.5,0,2.2-0.1v2.2
		c-0.4,0-0.8,0-1.2,0c-0.4,0-0.8,0-1.2,0c-1.7,0-2.9-0.3-3.6-1c-0.7-0.7-1-1.9-1-3.7V-47h-3.7v-2.2h3.7v-6.4h2.6v6.4H159.8z"/>
	<path class="st5" d="M164.4-34.9c0.3,1,0.7,1.9,1.3,2.7c0.6,0.8,1.3,1.5,2.2,2c0.9,0.5,1.9,0.8,3.2,0.8c1.9,0,3.4-0.5,4.4-1.5
		c1.1-1,1.8-2.3,2.2-4h2.6c-0.6,2.4-1.6,4.3-3,5.6c-1.5,1.3-3.5,2-6.2,2c-1.7,0-3.1-0.3-4.3-0.9c-1.2-0.6-2.2-1.4-3-2.4
		c-0.8-1-1.3-2.2-1.7-3.6c-0.4-1.4-0.6-2.8-0.6-4.3c0-1.4,0.2-2.8,0.6-4.1c0.4-1.3,0.9-2.5,1.7-3.6c0.8-1.1,1.8-1.9,3-2.6
		c1.2-0.6,2.7-1,4.3-1c1.7,0,3.2,0.3,4.4,1c1.2,0.7,2.2,1.6,2.9,2.7c0.8,1.1,1.3,2.4,1.6,3.8c0.3,1.4,0.5,2.9,0.4,4.4H164
		C164-36.9,164.1-35.9,164.4-34.9z M177.2-42.9c-0.3-0.9-0.8-1.7-1.3-2.4c-0.6-0.7-1.3-1.3-2.1-1.7c-0.8-0.4-1.8-0.6-2.8-0.6
		c-1.1,0-2,0.2-2.8,0.6c-0.8,0.4-1.5,1-2.1,1.7c-0.6,0.7-1,1.5-1.4,2.4c-0.3,0.9-0.6,1.9-0.7,2.8h13.8
		C177.7-41,177.6-41.9,177.2-42.9z"/>
	<path class="st5" d="M201.3-25.4c-0.3,1.3-0.9,2.3-1.6,3.2c-0.7,0.9-1.7,1.6-2.9,2c-1.2,0.5-2.7,0.7-4.4,0.7
		c-1.1,0-2.1-0.1-3.1-0.4c-1-0.2-1.9-0.6-2.7-1.2c-0.8-0.5-1.5-1.2-2-2c-0.5-0.8-0.8-1.8-0.9-2.9h2.6c0.1,0.8,0.4,1.5,0.8,2
		c0.4,0.5,0.9,1,1.4,1.3c0.6,0.3,1.2,0.6,1.9,0.7c0.7,0.2,1.4,0.2,2.1,0.2c2.4,0,4.2-0.7,5.2-2.1c1.1-1.4,1.6-3.4,1.6-5.9v-2.9h-0.1
		c-0.6,1.3-1.5,2.4-2.7,3.2c-1.2,0.8-2.5,1.2-4.1,1.2c-1.7,0-3.2-0.3-4.4-0.8c-1.2-0.6-2.2-1.3-3-2.3c-0.8-1-1.4-2.1-1.7-3.5
		c-0.4-1.3-0.5-2.8-0.5-4.3c0-1.5,0.2-2.8,0.6-4.1c0.4-1.3,1-2.4,1.9-3.4c0.8-1,1.8-1.7,3-2.3c1.2-0.6,2.6-0.8,4.1-0.8
		c0.8,0,1.5,0.1,2.2,0.3c0.7,0.2,1.3,0.5,1.9,0.9c0.6,0.4,1.1,0.9,1.5,1.4c0.5,0.5,0.8,1.1,1.1,1.6h0.1v-3.7h2.6v19.5
		C201.8-28.1,201.6-26.7,201.3-25.4z M195.3-31.1c0.9-0.5,1.6-1.1,2.1-1.9c0.6-0.8,1-1.7,1.3-2.7c0.3-1,0.4-2.1,0.4-3.1
		c0-1-0.1-2.1-0.4-3.1c-0.2-1-0.6-2-1.2-2.8c-0.6-0.9-1.3-1.5-2.1-2.1c-0.9-0.5-1.9-0.8-3.2-0.8c-1.2,0-2.3,0.3-3.2,0.8
		c-0.9,0.5-1.6,1.2-2.2,2c-0.6,0.8-1,1.8-1.3,2.8c-0.3,1.1-0.4,2.1-0.4,3.2c0,1.1,0.1,2.1,0.4,3.1c0.3,1,0.7,1.9,1.3,2.7
		c0.6,0.8,1.3,1.4,2.2,1.9c0.9,0.5,1.9,0.7,3.1,0.7C193.5-30.3,194.5-30.6,195.3-31.1z"/>
	<path class="st5" d="M207.1-49.2l7,18.1l6.5-18.1h2.6L214-24.7c-0.4,0.9-0.7,1.7-1.1,2.2c-0.3,0.6-0.7,1.1-1.1,1.4
		c-0.4,0.3-0.9,0.6-1.4,0.7c-0.5,0.2-1.2,0.2-2,0.2c-0.5,0-0.9,0-1.2-0.1c-0.3,0-0.5-0.1-0.8-0.1v-2.2c0.3,0.1,0.6,0.1,0.9,0.1
		s0.6,0.1,0.9,0.1c0.6,0,1.1-0.1,1.4-0.2c0.4-0.2,0.7-0.4,1-0.7c0.3-0.3,0.5-0.6,0.7-1.1c0.2-0.4,0.4-0.9,0.6-1.4l0.9-2.4l-8.5-21.2
		H207.1z"/>
	<path class="st5" d="M17.9-49c-0.4-0.6-0.8-1.1-1.4-1.6c-0.6-0.5-1.2-0.8-1.9-1.1c-0.7-0.3-1.5-0.4-2.2-0.4c-1.4,0-2.6,0.3-3.6,0.8
		c-1,0.5-1.8,1.3-2.4,2.2C5.7-48,5.3-47,5-45.8c-0.3,1.2-0.4,2.4-0.4,3.7c0,1.2,0.1,2.4,0.4,3.5c0.3,1.1,0.7,2.2,1.3,3.1
		c0.6,0.9,1.4,1.6,2.4,2.2c1,0.5,2.2,0.8,3.6,0.8c1.9,0,3.4-0.6,4.5-1.8c1.1-1.2,1.7-2.7,2-4.7H25c-0.2,1.8-0.6,3.4-1.2,4.9
		c-0.7,1.4-1.6,2.7-2.7,3.7c-1.1,1-2.4,1.8-3.9,2.3c-1.5,0.5-3.1,0.8-4.9,0.8c-2.2,0-4.2-0.4-5.9-1.1c-1.8-0.8-3.2-1.8-4.4-3.2
		c-1.2-1.3-2.1-2.9-2.8-4.7c-0.6-1.8-1-3.8-1-5.9c0-2.1,0.3-4.1,1-6c0.6-1.8,1.6-3.4,2.8-4.8c1.2-1.4,2.7-2.4,4.4-3.2
		c1.8-0.8,3.7-1.2,5.9-1.2c1.6,0,3.1,0.2,4.5,0.7c1.4,0.5,2.7,1.1,3.8,2c1.1,0.9,2,2,2.8,3.2c0.7,1.3,1.2,2.8,1.4,4.4h-6.1
		C18.5-47.7,18.3-48.4,17.9-49z"/>
	<path class="st5" d="M28-48.1c0.6-1.8,1.6-3.4,2.8-4.8c1.2-1.4,2.7-2.4,4.4-3.2c1.8-0.8,3.7-1.2,5.9-1.2c2.2,0,4.2,0.4,6,1.2
		c1.7,0.8,3.2,1.9,4.4,3.2c1.2,1.4,2.1,3,2.8,4.8c0.6,1.8,1,3.8,1,6c0,2.1-0.3,4-1,5.9c-0.6,1.8-1.6,3.4-2.8,4.7
		c-1.2,1.3-2.7,2.4-4.4,3.2c-1.7,0.8-3.7,1.1-6,1.1c-2.2,0-4.2-0.4-5.9-1.1c-1.8-0.8-3.2-1.8-4.4-3.2c-1.2-1.3-2.1-2.9-2.8-4.7
		c-0.6-1.8-1-3.8-1-5.9C27-44.3,27.4-46.3,28-48.1z M33.8-38.6c0.3,1.1,0.7,2.2,1.3,3.1c0.6,0.9,1.4,1.6,2.4,2.2
		c1,0.5,2.2,0.8,3.6,0.8c1.4,0,2.6-0.3,3.6-0.8c1-0.5,1.8-1.3,2.4-2.2c0.6-0.9,1.1-1.9,1.3-3.1c0.3-1.1,0.4-2.3,0.4-3.5
		c0-1.3-0.1-2.5-0.4-3.7C48.3-47,47.8-48,47.2-49c-0.6-0.9-1.4-1.7-2.4-2.2c-1-0.5-2.2-0.8-3.6-0.8c-1.4,0-2.6,0.3-3.6,0.8
		c-1,0.5-1.8,1.3-2.4,2.2c-0.6,0.9-1.1,2-1.3,3.2s-0.4,2.4-0.4,3.7C33.4-40.9,33.5-39.8,33.8-38.6z"/>
	<path class="st5" d="M75.6-28.1c-1.4,0.6-2.7,0.9-4.1,0.9c-2.2,0-4.2-0.4-5.9-1.1c-1.8-0.8-3.2-1.8-4.4-3.2
		c-1.2-1.3-2.1-2.9-2.8-4.7c-0.6-1.8-1-3.8-1-5.9c0-2.1,0.3-4.1,1-6c0.6-1.8,1.6-3.4,2.8-4.8c1.2-1.4,2.7-2.4,4.4-3.2
		c1.8-0.8,3.7-1.2,5.9-1.2c1.5,0,2.9,0.2,4.3,0.7c1.4,0.4,2.6,1.1,3.7,2c1.1,0.9,2,1.9,2.8,3.2c0.7,1.3,1.2,2.7,1.3,4.3h-6
		c-0.4-1.6-1.1-2.8-2.2-3.6C74.3-51.6,73-52,71.5-52c-1.4,0-2.6,0.3-3.6,0.8c-1,0.5-1.8,1.3-2.4,2.2c-0.6,0.9-1.1,2-1.3,3.2
		c-0.3,1.2-0.4,2.4-0.4,3.7c0,1.2,0.1,2.4,0.4,3.5c0.3,1.1,0.7,2.2,1.3,3.1c0.6,0.9,1.4,1.6,2.4,2.2c1,0.5,2.2,0.8,3.6,0.8
		c2.1,0,3.7-0.5,4.8-1.6c1.1-1.1,1.8-2.6,2-4.6h-6.4v-4.7H84v15.5h-4l-0.6-3.3C78.2-29.7,77-28.7,75.6-28.1z"/>
</g>
</svg>
